<?xml version="1.0" standalone="no"?>
<!DOCTYPE svg PUBLIC "-//W3C//DTD SVG 20010904//EN"
 "http://www.w3.org/TR/2001/REC-SVG-20010904/DTD/svg10.dtd">
<svg version="1.0" xmlns="http://www.w3.org/2000/svg"
 width="2816.000000pt" height="1536.000000pt" viewBox="0 0 2816.000000 1536.000000"
 preserveAspectRatio="xMidYMid meet">

<g transform="translate(0.000000,1536.000000) scale(0.100000,-0.100000)"
fill="#000000" stroke="none">
<path d="M0 7680 l0 -7680 14080 0 14080 0 0 7680 0 7680 -14080 0 -14080 0 0
-7680z m16365 5059 c569 -62 1128 -381 1415 -808 166 -247 330 -813 332 -1141
0 -98 -3 -113 -41 -225 -22 -65 -41 -135 -41 -155 0 -19 13 -62 28 -95 36 -75
225 -408 285 -502 79 -122 88 -148 88 -225 0 -129 -45 -168 -250 -219 -24 -6
-54 -22 -68 -37 -29 -32 -28 -59 11 -147 42 -98 31 -158 -41 -220 -36 -31 -36
-31 -19 -62 9 -18 16 -54 16 -81 0 -55 -18 -87 -90 -161 l-43 -45 7 -65 c19
-182 19 -209 1 -279 -22 -93 -61 -153 -127 -196 -76 -50 -162 -69 -273 -63
-78 4 -122 11 -244 34 -19 3 -22 6 -11 13 8 5 18 6 22 4 4 -3 5 1 2 9 -6 15
-16 17 -96 18 -32 0 -58 4 -58 8 0 5 27 8 60 7 38 -1 56 2 50 8 -5 5 -24 9
-42 9 l-33 -1 30 14 c17 7 26 13 21 14 -5 0 -2 8 5 18 13 16 13 16 -7 0 -25
-22 -40 -23 -48 -3 -3 8 -1 15 4 15 6 0 10 9 10 19 0 17 -14 27 -50 36 -3 1
-14 5 -25 9 -11 4 -33 12 -50 18 -16 6 -44 17 -62 24 -17 8 -36 14 -42 14 -6
0 -11 4 -11 9 0 4 56 -12 125 -36 256 -89 361 -116 481 -121 98 -4 115 -2 152
17 95 48 119 124 102 314 -17 170 -13 185 55 259 72 78 71 95 -10 161 -33 26
-60 53 -60 59 0 5 32 22 70 35 81 29 125 65 125 102 0 14 -11 53 -25 86 -45
110 -28 214 43 262 18 12 76 32 128 44 186 43 188 58 24 334 -140 237 -249
439 -270 504 -26 77 -23 105 27 251 31 90 36 118 36 195 -1 223 -90 600 -188
795 -13 25 -26 67 -30 93 -13 88 -157 300 -281 416 -290 271 -680 460 -1059
515 -134 19 -404 36 -477 30 -29 -2 -109 -9 -176 -14 -312 -26 -604 -131 -890
-322 -40 -26 -80 -48 -90 -48 -10 1 -3 8 17 19 35 18 35 19 13 32 -12 8 -22
21 -22 29 1 12 3 11 11 -3 8 -14 14 -16 25 -6 16 13 20 44 4 34 -6 -3 -7 1 -4
9 3 9 1 16 -5 16 -6 0 -11 -4 -11 -9 0 -10 -39 -26 -46 -18 -2 2 15 17 38 33
24 16 45 32 48 35 12 13 130 87 196 121 165 87 425 171 609 199 189 28 485 31
700 8z m-2113 -97 c125 -61 207 -182 216 -317 15 -237 -153 -418 -388 -417
-151 0 -278 80 -341 214 -32 68 -34 80 -34 173 0 93 2 104 33 165 51 100 109
154 211 197 48 20 69 23 147 20 78 -2 100 -7 156 -35z m-1190 -93 c87 -18 212
-82 272 -139 29 -28 68 -79 87 -113 45 -85 52 -203 19 -338 -27 -108 -23 -173
13 -253 49 -107 155 -180 280 -194 l47 -5 0 -90 0 -90 -79 6 c-135 11 -248 63
-341 159 -94 97 -130 171 -161 331 -22 118 -55 182 -124 244 -77 70 -123 87
-230 87 -114 -1 -160 -17 -405 -140 -253 -127 -311 -146 -477 -152 -102 -3
-149 0 -209 13 -91 20 -254 92 -254 111 0 8 5 14 11 14 39 0 359 141 714 315
363 178 460 217 585 238 53 9 201 7 252 -4z m3301 -73 c10 10 75 -29 70 -42
-3 -8 -1 -14 4 -14 4 0 14 -9 20 -20 11 -17 10 -19 -5 -14 -11 3 -8 -1 7 -13
13 -10 83 -36 154 -59 113 -36 139 -41 201 -37 103 5 141 3 144 -7 2 -6 12
-10 22 -10 9 0 23 -7 30 -15 7 -8 19 -15 26 -15 17 0 74 -86 74 -111 0 -9 17
-28 39 -42 21 -14 69 -60 107 -101 55 -61 72 -74 90 -70 35 9 84 -22 91 -57 3
-17 12 -33 19 -36 8 -3 14 -13 14 -22 1 -14 3 -13 15 3 13 17 14 17 22 -10 4
-16 6 -37 4 -46 -1 -10 3 -18 10 -18 7 0 9 -3 6 -6 -11 -12 -36 17 -30 34 4
15 3 15 -6 2 -14 -20 -14 -26 3 -43 8 -7 28 -41 45 -74 29 -59 96 -127 113
-117 4 3 8 0 8 -5 0 -6 7 -11 15 -11 8 0 15 -5 15 -11 0 -5 -3 -8 -7 -6 -5 3
-8 -15 -9 -39 0 -24 -7 -56 -14 -70 -13 -24 -8 -125 16 -301 6 -41 4 -45 -44
-91 -54 -52 -100 -132 -106 -184 -4 -44 -47 -86 -94 -93 -35 -5 -49 -9 -135
-41 -21 -8 -98 -19 -170 -25 -73 -6 -142 -14 -153 -19 -18 -7 -26 -27 -43
-100 -11 -50 -27 -104 -36 -119 -16 -32 -207 -171 -295 -216 l-55 -28 -120 18
c-66 10 -145 19 -175 22 l-55 4 -65 -81 c-166 -209 -258 -354 -319 -511 -34
-86 -105 -116 -156 -64 -34 33 -32 72 4 116 27 32 32 53 59 220 63 389 68 430
49 444 -9 7 -17 17 -17 24 0 6 -6 14 -13 17 -17 6 -14 77 5 107 14 21 11 27
-41 98 -56 76 -181 237 -227 292 -26 31 -45 29 -37 -3 7 -26 -12 -26 -31 1
-11 16 -22 20 -40 17 -14 -3 -26 -1 -26 4 0 5 -4 6 -10 3 -5 -3 -10 0 -10 7 0
10 -2 10 -8 1 -6 -9 -12 -7 -25 7 -16 20 -18 19 -124 -19 -60 -21 -130 -48
-158 -59 -27 -12 -108 -37 -180 -57 -94 -27 -138 -44 -158 -63 -34 -32 -88
-35 -117 -6 -45 45 -100 320 -100 500 l0 106 67 126 c53 101 66 133 65 166 -1
22 3 55 9 73 9 28 17 34 48 39 30 5 42 14 63 47 15 23 56 71 92 107 40 39 66
73 66 86 0 30 23 46 61 42 20 -2 34 2 36 10 3 6 0 12 -7 12 -6 0 -8 5 -5 10 4
6 10 8 14 5 5 -2 21 14 36 36 48 69 96 101 240 160 73 30 93 42 105 67 20 42
48 61 88 62 22 0 32 5 32 16 0 8 5 12 10 9 6 -4 7 -11 4 -17 -5 -7 -2 -8 5 -4
7 5 18 1 25 -10 10 -13 21 -16 47 -10 70 14 235 70 254 86 54 47 94 51 137 15
28 -24 36 -25 157 -25 101 0 131 3 147 16 10 8 15 13 9 11 -5 -2 -19 -1 -30 3
-16 6 -13 8 17 14 20 3 41 13 48 20 8 10 19 12 40 6 16 -4 31 -6 33 -4z
m-1602 -179 c-8 -8 -11 -7 -11 4 0 9 3 19 7 23 4 4 9 2 11 -4 3 -7 -1 -17 -7
-23z m9 -27 c0 -5 -2 -10 -4 -10 -3 0 -8 5 -11 10 -3 6 -1 10 4 10 6 0 11 -4
11 -10z m40 6 c0 -3 -4 -8 -10 -11 -5 -3 -10 -1 -10 4 0 6 5 11 10 11 6 0 10
-2 10 -4z m-26 -53 c-5 -5 -12 -12 -16 -18 -4 -6 -8 -2 -8 8 0 9 7 17 17 17 9
0 12 -3 7 -7z m-1837 -226 c42 -22 83 -70 98 -113 16 -47 10 -54 -69 -80 -58
-19 -176 -80 -256 -134 -162 -108 -256 -138 -398 -126 -112 9 -302 63 -302 86
0 4 15 14 33 21 32 13 278 145 392 210 126 73 292 150 335 157 53 9 126 0 167
-21z m-1531 -124 c48 -31 120 -69 160 -84 78 -31 216 -58 298 -60 l51 -1 -105
-50 c-323 -155 -534 -230 -764 -273 -252 -46 -426 -43 -601 12 -101 32 -154
59 -233 118 -57 43 -132 126 -132 146 0 4 31 7 68 8 149 1 497 48 707 95 122
27 394 110 434 131 14 8 27 14 28 15 1 0 41 -26 89 -57z m6059 -43 c3 -5 1
-10 -4 -10 -6 0 -11 5 -11 10 0 6 2 10 4 10 3 0 8 -4 11 -10z m-3465 -52 c61
-10 158 -6 224 8 l28 7 -6 -394 c-3 -217 -8 -477 -11 -579 -3 -102 -8 -331
-11 -510 -4 -179 -8 -332 -10 -340 -1 -8 -3 -67 -3 -131 l-1 -117 -44 -6 c-25
-4 -69 -15 -98 -25 -29 -10 -69 -21 -89 -25 l-36 -6 -6 152 c-4 84 -11 389
-17 678 -5 289 -12 617 -15 730 -4 162 -8 529 -5 574 0 4 8 5 18 1 9 -4 46
-11 82 -17z m-908 -117 c4 -24 21 -65 39 -92 17 -27 29 -53 27 -58 -7 -21
-137 -116 -197 -144 -58 -28 -73 -30 -165 -30 -80 0 -115 5 -171 24 -38 13
-70 29 -70 36 0 7 29 32 65 56 36 24 123 82 193 130 117 79 230 132 262 123 5
-1 13 -22 17 -45z m4448 29 c0 -5 -4 -10 -10 -10 -5 0 -10 5 -10 10 0 6 5 10
10 10 6 0 10 -4 10 -10z m-5598 -175 c101 -54 202 -85 297 -92 83 -6 83 -6 60
-24 -45 -34 -224 -137 -334 -192 -140 -70 -274 -123 -395 -154 -125 -33 -317
-37 -430 -10 -93 23 -261 103 -315 150 l-40 34 65 7 c297 32 619 128 940 280
41 19 77 35 80 36 3 0 36 -16 72 -35z m1339 -141 c18 -20 58 -50 87 -66 54
-31 61 -41 39 -55 -7 -4 -35 -35 -62 -68 -199 -241 -369 -383 -518 -434 -102
-35 -190 -46 -277 -32 -43 6 -97 17 -121 24 l-42 12 79 47 c198 116 403 279
691 550 34 32 68 58 75 58 8 0 30 -16 49 -36z m-778 -103 c89 -45 186 -66 260
-58 l52 6 -30 -25 c-225 -187 -468 -331 -632 -376 -101 -28 -277 -30 -373 -4
-66 18 -210 83 -210 95 0 4 32 15 70 25 181 46 476 182 675 310 55 35 102 65
105 65 3 1 40 -16 83 -38z m1087 -55 c30 -8 83 -17 118 -21 l62 -7 0 -68 0
-69 -62 -77 c-95 -118 -186 -182 -310 -218 -64 -18 -298 -23 -298 -6 0 6 4 10
9 10 5 0 59 48 120 106 101 97 220 241 273 329 23 40 18 39 88 21z m-3213
-425 c24 -11 54 -37 71 -60 l29 -40 289 -6 c257 -6 291 -8 313 -25 15 -10 83
-76 153 -147 125 -128 127 -129 153 -115 15 7 50 16 78 19 45 4 58 1 95 -24
26 -17 49 -43 59 -65 l17 -38 398 0 c219 0 398 -2 398 -5 0 -4 -7 -19 -15 -35
l-16 -30 -382 0 -383 0 -11 -29 c-6 -16 -30 -43 -53 -60 -76 -55 -185 -37
-238 40 -21 30 -23 43 -19 101 l4 67 -137 135 -137 136 -284 0 -284 0 -29 -41
c-40 -56 -80 -79 -141 -79 -97 0 -161 73 -153 175 10 119 113 176 225 126z
m4738 -2 c10 -15 -3 -59 -17 -59 -6 0 -20 7 -30 17 -17 15 -17 17 -2 35 19 20
39 23 49 7z m325 -125 c0 -46 -36 -66 -75 -40 -39 26 -27 79 20 88 35 8 55
-10 55 -48z m-1987 -154 c85 -32 173 -103 234 -189 74 -103 70 -151 -17 -197
-28 -15 -57 -19 -145 -19 -126 0 -175 14 -266 76 -76 50 -123 64 -176 50 -54
-15 -92 -46 -114 -95 -72 -159 66 -306 390 -413 88 -29 385 -103 413 -103 4 0
8 -4 8 -8 0 -5 -26 -16 -57 -26 -127 -39 -291 -110 -371 -158 -96 -60 -77 -61
-263 21 -267 119 -431 290 -470 489 -52 274 135 524 440 588 104 21 320 13
394 -16z m1667 4 c183 -41 320 -152 380 -306 30 -74 33 -93 33 -185 -1 -93 -3
-107 -33 -172 -18 -39 -36 -71 -40 -71 -4 0 -10 -9 -13 -20 -3 -11 -10 -20
-16 -20 -14 0 -14 17 -1 25 6 3 10 15 10 27 0 20 0 20 -17 1 -10 -10 -14 -14
-10 -7 4 7 3 15 -3 19 -5 3 -10 0 -10 -7 0 -9 -3 -9 -10 2 -8 12 -13 13 -29 3
-15 -10 -22 -9 -31 2 -8 9 -8 15 -2 15 6 0 13 -6 15 -12 3 -7 6 -3 6 10 2 38
-12 30 -124 -71 -39 -36 -231 -143 -310 -174 -141 -54 -253 -84 -575 -153
-513 -110 -637 -151 -812 -267 -80 -53 -139 -117 -182 -198 -30 -59 -31 -63
-31 -193 0 -108 -2 -129 -13 -115 -15 21 -32 25 -101 25 -39 -1 -59 4 -68 16
-12 15 -13 9 -9 -43 l5 -60 -16 45 c-10 29 -15 80 -15 145 0 85 4 112 29 180
55 153 166 278 328 371 177 102 307 146 640 219 325 72 599 140 720 179 239
77 394 205 395 326 0 95 -50 166 -133 189 -58 17 -97 8 -154 -36 -26 -20 -76
-49 -111 -66 -61 -28 -67 -29 -180 -25 -120 4 -170 19 -199 57 -33 44 -2 116
96 223 83 91 161 127 296 137 105 9 215 3 295 -15z m2447 -81 c117 -55 126
-225 16 -292 l-43 -26 0 -180 c0 -113 -4 -175 -9 -166 -8 12 -19 6 -60 -32
l-50 -47 -130 0 -129 0 -101 101 -101 101 0 204 0 204 35 0 c46 0 49 -15 41
-188 -4 -98 -2 -146 7 -169 6 -18 42 -66 79 -106 l67 -74 88 -6 c100 -6 139 5
166 46 14 22 17 51 17 165 l0 139 -37 24 c-56 36 -83 83 -83 141 0 129 118
213 227 161z m-1887 -27 c0 -2 3 -11 6 -19 8 -22 -25 -51 -42 -36 -17 14 -18
31 -2 47 11 11 38 17 38 8z m-6050 -86 c38 -10 105 -69 115 -101 6 -18 18 -19
218 -20 117 -1 361 0 542 1 182 1 348 -1 368 -5 30 -6 56 -26 130 -102 51 -53
131 -131 179 -174 l88 -79 389 0 389 0 154 -160 153 -160 107 0 c104 0 107 -1
128 -27 20 -26 20 -28 3 -34 -10 -4 -74 -8 -142 -8 l-125 -1 -150 149 c-83 82
-161 154 -173 160 -15 7 -140 11 -397 11 l-376 0 -77 73 c-43 39 -80 74 -83
77 -3 3 -51 49 -106 103 l-101 99 -525 5 c-289 3 -541 3 -561 -1 -26 -5 -42
-16 -54 -37 -10 -16 -23 -27 -30 -25 -7 3 -10 -1 -7 -9 8 -21 -54 -49 -108
-48 -90 1 -158 67 -158 152 0 88 67 157 165 170 6 0 26 -3 45 -9z m6880 -419
l0 -119 58 -48 c31 -26 80 -69 109 -95 l51 -46 159 -5 c184 -6 167 1 318 -127
126 -107 143 -123 127 -129 -18 -6 -14 -22 6 -22 14 0 14 -2 3 -9 -23 -15 -45
2 -186 138 -38 38 -79 73 -90 78 -13 7 -74 8 -175 4 -85 -4 -168 -5 -183 -3
-20 3 -66 40 -148 119 l-119 115 0 134 0 134 35 0 35 0 0 -119z m-6280 54 c12
-11 31 -37 41 -57 l19 -38 156 0 c115 0 162 -4 182 -14 15 -8 97 -85 182 -170
l155 -156 486 0 485 0 30 -33 c16 -18 91 -92 166 -165 l136 -132 351 0 c264 0
351 -3 351 -12 0 -6 -10 -22 -22 -35 l-21 -23 -348 0 -348 0 -165 165 -164
165 -263 1 c-145 1 -356 2 -469 3 -113 1 -544 3 -957 4 -494 1 -753 5 -753 12
0 6 7 10 15 10 8 0 15 5 15 11 0 7 -11 8 -30 4 -35 -8 -42 10 -7 19 12 3 331
6 710 6 378 0 687 4 687 8 0 5 -58 66 -129 135 l-129 127 -149 0 -148 0 -29
-46 c-20 -31 -43 -53 -70 -65 -74 -34 -132 -22 -190 40 -60 63 -40 194 37 242
43 27 155 23 187 -6z m5080 -175 c0 -5 -5 -10 -11 -10 -5 0 -7 5 -4 10 3 6 8
10 11 10 2 0 4 -4 4 -10z m120 -53 c0 -2 -19 -21 -42 -42 -27 -26 -37 -32 -29
-17 6 12 16 22 21 22 5 0 12 9 15 20 3 11 13 20 21 20 8 0 14 -1 14 -3z m793
-51 c12 -13 123 -129 247 -259 l225 -236 48 -1 c78 0 133 -40 156 -112 13 -38
8 -95 -9 -128 -16 -30 -69 -69 -110 -81 -33 -10 -47 -9 -85 5 -90 35 -126 124
-86 215 25 58 26 75 7 93 -8 7 -98 96 -200 198 l-186 184 0 -244 c1 -135 5
-264 9 -288 5 -24 5 -40 0 -35 -4 4 -13 46 -18 93 -6 47 -16 87 -21 88 -6 2
-10 15 -10 28 0 13 -5 24 -10 24 -7 0 -9 -40 -6 -117 4 -82 2 -109 -4 -88 -16
50 -30 278 -30 488 l0 197 30 0 c20 0 39 -9 53 -24z m-907 -61 c-40 -34 -46
-31 -11 5 16 16 31 27 34 24 3 -2 -8 -16 -23 -29z m-6054 -4 c-10 -6 -7 -10
12 -15 14 -3 26 -11 26 -17 0 -6 -6 -6 -19 1 -11 5 -33 10 -50 10 -17 0 -31 4
-31 10 0 5 7 7 15 4 8 -4 15 -1 15 5 0 6 10 11 23 11 16 0 18 -3 9 -9z m38 -1
c0 -5 -5 -10 -11 -10 -5 0 -7 5 -4 10 3 6 8 10 11 10 2 0 4 -4 4 -10z m-115
-20 c-3 -5 -12 -10 -18 -10 -7 0 -6 4 3 10 19 12 23 12 15 0z m132 -32 c-3 -7
-5 -2 -5 12 0 14 2 19 5 13 2 -7 2 -19 0 -25z m19 -35 c-10 -10 -19 5 -10 18
6 11 8 11 12 0 2 -7 1 -15 -2 -18z m114 -53 c0 -5 -7 -10 -15 -10 -8 0 -15 5
-15 10 0 6 7 10 15 10 8 0 15 -4 15 -10z m5520 -50 c-18 -12 -30 -13 -30 -2 0
4 10 9 22 9 18 2 20 0 8 -7z m-41 -14 c-2 -2 -15 -7 -29 -10 l-25 -7 25 15
c21 12 42 14 29 2z m2014 5 c21 -1 52 -25 122 -92 l95 -92 0 -177 c0 -187 -7
-270 -22 -270 -5 0 -6 5 -3 10 3 6 1 10 -4 10 -6 0 -11 -9 -11 -20 0 -11 5
-17 13 -15 6 3 27 -9 46 -25 26 -23 34 -38 33 -61 -3 -97 -144 -107 -168 -12
-8 31 16 75 42 79 18 3 18 2 2 -10 -19 -14 -24 -36 -9 -36 6 0 13 5 16 10 12
20 23 9 21 -20 -3 -37 11 -39 20 -3 5 19 2 30 -10 39 -25 18 -36 111 -36 305
l0 167 -82 77 c-44 42 -97 88 -117 103 -56 41 -57 42 -15 38 21 -2 52 -4 67
-5z m-7747 -22 c19 -21 19 -21 -8 -8 -15 6 -25 16 -22 20 7 12 8 12 30 -12z
m124 -24 c-21 -20 -80 -31 -80 -15 0 7 7 10 15 7 8 -4 27 0 42 8 36 19 41 19
23 0z m-130 -15 c18 -12 2 -12 -25 0 -13 6 -15 9 -5 9 8 0 22 -4 30 -9z m6340
-42 c108 -55 109 -216 3 -283 l-32 -20 -1 -105 c-1 -58 -3 -276 -6 -485 -2
-209 -4 -386 -4 -393 0 -22 -357 -352 -382 -352 -14 0 0 70 19 94 10 12 36 38
58 57 73 62 119 103 177 158 l58 54 0 482 0 483 -49 37 c-57 44 -71 69 -71
131 0 50 16 88 52 121 50 47 111 54 178 21z m-643 -137 c203 -210 233 -505 76
-743 -109 -166 -306 -293 -688 -443 -254 -99 -317 -127 -400 -174 -166 -96
-247 -244 -201 -371 21 -61 75 -129 152 -192 41 -33 74 -68 74 -77 0 -9 -26
-30 -63 -50 -34 -19 -97 -56 -139 -83 l-78 -50 -79 67 c-174 146 -251 294
-251 478 0 157 54 281 174 402 132 132 260 207 581 340 464 192 605 303 605
480 0 120 -76 223 -222 304 l-67 37 197 48 c108 27 213 55 232 62 49 18 45 19
97 -35z m-2908 -136 l166 -164 355 -3 355 -3 0 -30 0 -30 -369 -3 -369 -2
-164 162 -164 163 -507 5 c-464 5 -510 4 -537 -12 -16 -9 -82 -69 -145 -133
-106 -106 -140 -132 -140 -104 0 5 6 7 13 3 6 -4 9 -3 4 1 -12 14 -58 12 -52
-2 19 -48 19 -49 -4 -28 -17 15 -37 20 -77 20 -45 0 -56 -4 -70 -23 -13 -18
-19 -21 -28 -12 -8 9 -8 14 2 17 15 6 16 33 1 33 -7 0 -18 -8 -25 -17 -7 -10
-14 -13 -14 -7 0 5 13 23 30 39 37 36 110 45 162 21 l36 -17 142 145 143 146
545 0 546 0 165 -165z m3798 -1120 l-5 -1154 503 -503 c502 -501 504 -503 501
-541 -3 -34 -16 -66 -16 -39 0 7 -4 12 -8 12 -5 0 -9 -35 -10 -77 -2 -43 -3
-99 -5 -126 -2 -46 7 -64 16 -29 4 13 5 12 6 -5 0 -12 -3 -25 -9 -28 -5 -3
-10 -15 -10 -26 0 -11 4 -17 10 -14 6 3 7 -1 4 -9 -3 -9 -10 -14 -14 -11 -5 3
-6 -4 -3 -15 3 -11 10 -17 15 -13 6 3 8 0 6 -8 -3 -8 -10 -13 -16 -12 -8 2 -9
-5 -2 -23 12 -31 12 -37 1 -30 -5 3 -8 -5 -7 -18 0 -13 4 -22 9 -19 4 2 7 -3
7 -12 0 -10 -5 -13 -12 -9 -11 7 -10 -4 8 -76 4 -20 3 -22 -5 -10 -9 13 -11
13 -11 -2 0 -10 5 -18 10 -18 6 0 10 -5 10 -11 0 -5 -5 -7 -11 -3 -8 5 -10 -3
-7 -25 2 -17 1 -31 -4 -31 -9 0 -10 11 -12 278 0 105 3 192 8 192 5 0 4 6 -1
13 -14 16 -13 50 1 59 6 5 7 8 1 8 -6 0 -11 33 -12 75 -2 72 -3 77 -35 106
-18 17 -196 193 -394 390 -199 197 -368 359 -375 359 -20 0 -16 -309 3 -321 7
-5 75 -70 150 -146 92 -92 133 -140 125 -145 -17 -11 -27 -10 -27 3 0 5 5 7
10 4 6 -3 10 -1 10 4 0 6 -7 11 -15 11 -8 0 -15 4 -15 10 0 5 -37 46 -82 90
-76 75 -83 79 -90 59 -10 -26 -1 -40 12 -19 5 8 12 11 17 7 4 -5 1 -12 -6 -16
-9 -6 -10 -11 -2 -15 6 -4 15 -5 20 -1 15 9 20 -9 6 -22 -10 -9 -23 -1 -61 38
-35 35 -56 49 -76 49 -23 0 -28 -4 -28 -25 0 -14 -4 -25 -9 -25 -5 0 -10 117
-10 268 l-2 267 -54 55 c-30 30 -59 67 -64 83 -7 18 -11 400 -11 1153 l0 1125
26 35 c15 19 31 34 37 34 6 0 8 -373 4 -1155z m-1580 1018 c-4 -71 -7 -201 -7
-290 l0 -161 -76 -32 c-83 -34 -139 -47 -146 -34 -3 5 -9 138 -13 295 l-7 286
94 26 c81 22 110 29 152 36 5 0 6 -52 3 -126z m2017 -55 c14 -48 19 -55 36
-51 24 6 24 6 4 72 -8 29 -13 58 -11 64 2 6 9 -11 16 -38 7 -27 30 -87 53
-133 33 -69 56 -101 127 -172 88 -88 126 -113 311 -207 113 -58 105 -63 -13
-8 -52 24 -75 31 -85 23 -9 -8 -11 -7 -6 6 3 9 2 16 -3 16 -4 0 -49 27 -98 60
-50 32 -91 55 -93 50 -6 -17 -30 -11 -52 12 -12 13 -20 17 -20 9 0 -16 97
-109 122 -117 10 -3 18 -10 18 -15 0 -21 -67 27 -145 105 -93 92 -139 174
-174 310 -21 81 -29 148 -11 96 5 -14 16 -50 24 -82z m-7378 31 c71 -14 89
-35 80 -96 -3 -27 -14 -68 -23 -92 l-16 -43 -51 5 c-50 5 -126 34 -126 48 0
19 -70 49 -115 49 -143 0 -226 -83 -259 -260 -22 -114 -56 -413 -70 -615 -11
-165 -11 -181 5 -192 13 -10 18 -37 23 -130 8 -131 24 -199 66 -284 74 -145
199 -227 360 -237 202 -11 363 90 491 310 40 68 87 108 97 80 2 -6 11 -12 20
-12 14 0 14 1 -1 13 -14 11 -6 33 82 222 196 421 233 523 234 640 1 91 -19
143 -74 189 -54 46 -90 60 -151 59 -32 -1 -58 2 -58 7 0 4 -9 10 -20 13 -17 4
-20 2 -15 -13 5 -15 1 -18 -19 -16 -14 2 -32 8 -40 15 -37 31 -24 150 21 195
20 20 32 24 64 20 48 -6 130 -52 145 -82 6 -12 37 -39 70 -60 73 -48 139 -119
167 -180 18 -39 22 -64 21 -147 -1 -93 -4 -109 -50 -235 -27 -74 -108 -254
-180 -400 -81 -161 -129 -269 -123 -275 17 -17 9 -40 -43 -132 -52 -90 -178
-243 -201 -243 -6 0 2 12 18 28 42 38 85 98 85 116 0 9 8 16 18 16 12 0 13 3
5 8 -9 6 -8 15 6 36 13 19 20 24 24 14 4 -8 6 -9 6 -1 1 6 -4 15 -9 18 -6 4
-1 14 11 24 15 12 18 20 11 25 -7 4 -22 -10 -38 -34 -15 -22 -31 -40 -35 -40
-5 0 -9 -5 -9 -11 0 -6 -16 -27 -35 -46 -19 -19 -35 -39 -35 -44 0 -5 -8 -9
-17 -9 -16 1 -16 2 -3 13 16 13 63 77 57 77 -2 0 -26 -21 -53 -46 -27 -25 -65
-58 -84 -72 -19 -15 -37 -30 -40 -34 -5 -6 -34 -21 -130 -67 l-25 -11 27 5
c36 7 44 -9 14 -29 -15 -9 -26 -11 -28 -5 -2 5 -32 12 -66 14 -51 3 -61 1 -53
-9 8 -9 7 -13 -4 -13 -7 0 -13 5 -12 11 1 6 -22 12 -58 13 -67 4 -68 4 -179
58 -168 82 -269 227 -311 443 -2 9 -4 30 -4 46 -1 30 -15 28 -17 -2 -1 -10 -2
-28 -3 -41 -2 -36 -10 -21 -16 30 -3 24 -8 67 -11 94 -3 28 -8 52 -10 54 -5 5
-8 -62 -5 -96 1 -13 -3 -23 -9 -23 -5 0 -10 -5 -10 -11 0 -5 5 -7 10 -4 6 4 8
-3 6 -17 -3 -13 -5 -36 -6 -53 -5 -68 -19 52 -19 162 -1 79 3 115 12 125 9 9
19 84 30 233 47 607 87 755 231 852 65 44 134 63 230 63 46 1 91 6 104 13 30
17 58 19 118 6z m1365 -82 c-10 -9 -11 -8 -5 6 3 10 9 15 12 12 3 -3 0 -11 -7
-18z m251 -19 c-7 -7 -12 -8 -12 -2 0 14 12 26 19 19 2 -3 -1 -11 -7 -17z
m-205 -20 c-3 -7 -5 -2 -5 12 0 14 2 19 5 13 2 -7 2 -19 0 -25z m-43 -9 c-9
-15 40 -97 68 -114 42 -24 122 -23 157 2 14 11 37 37 49 59 13 21 21 31 18 21
-3 -10 -6 -22 -6 -26 0 -12 -53 -67 -77 -80 -30 -16 -109 -14 -143 4 -37 19
-68 70 -75 125 -5 32 -4 41 4 30 5 -8 8 -17 5 -21z m293 9 c-3 -8 -6 -5 -6 6
-1 11 2 17 5 13 3 -3 4 -12 1 -19z m1152 1 c123 -28 239 -119 295 -229 68
-137 71 -275 7 -404 -27 -55 -93 -133 -145 -169 -13 -10 -17 -21 -14 -38 40
-180 68 -343 74 -424 7 -118 -9 -320 -38 -454 -44 -206 -153 -441 -282 -603
-94 -118 -233 -237 -196 -168 6 11 16 17 22 14 7 -4 8 -3 4 4 -8 14 -37 16
-34 3 2 -5 0 -9 -4 -10 -5 -1 -8 1 -8 4 0 3 0 10 0 15 0 6 6 10 14 10 8 0 17
7 20 16 7 18 3 16 -84 -47 -157 -113 -316 -184 -490 -218 -79 -15 -304 -31
-449 -31 -211 0 -373 -36 -503 -113 -91 -53 -200 -171 -273 -295 -5 -9 -12
-19 -15 -22 -3 -3 -13 -21 -23 -40 -16 -31 -76 -110 -65 -85 29 64 33 99 5 53
-12 -21 -29 -38 -38 -38 -17 0 -33 -26 -21 -33 4 -2 1 -2 -6 0 -8 2 -16 -6
-19 -17 -3 -11 -9 -20 -13 -20 -4 0 -11 -7 -14 -16 -5 -12 -2 -15 9 -10 10 3
13 2 10 -5 -4 -6 -13 -8 -21 -5 -7 3 -18 -4 -24 -14 -8 -14 -8 -20 0 -20 6 0
8 -5 5 -10 -4 -6 -11 -7 -17 -4 -6 4 -13 3 -17 -2 -3 -5 -16 -18 -28 -28 -37
-31 -26 -5 15 39 21 22 48 57 61 78 12 20 26 37 30 37 3 0 12 12 18 28 18 42
79 148 131 226 122 184 323 327 541 383 84 21 130 26 366 33 343 12 448 32
629 121 90 45 131 73 227 159 185 166 318 393 384 660 37 146 45 377 20 552
-14 100 -57 304 -81 380 -4 12 7 20 48 34 86 28 132 66 167 136 27 52 31 72
31 138 0 107 -21 162 -89 231 -131 132 -317 132 -449 -2 -86 -87 -109 -238
-53 -354 34 -73 107 -142 180 -170 46 -18 53 -24 62 -60 6 -22 12 -48 15 -57
12 -42 -129 -12 -221 47 -321 205 -249 694 120 811 49 15 164 17 224 3z
m-1192 -39 c-1 -10 -5 -16 -9 -14 -4 3 -8 1 -8 -5 0 -6 -16 -21 -35 -34 -19
-13 -33 -26 -31 -28 2 -2 -7 -4 -20 -4 -13 0 -24 5 -24 11 0 6 11 12 23 12 36
0 77 31 84 63 6 31 23 31 20 -1z m3027 -26 c12 -65 41 -111 115 -184 59 -57
101 -88 180 -129 56 -29 99 -57 94 -62 -21 -21 -177 -79 -197 -73 -89 27 -298
195 -312 251 -4 13 -10 23 -14 23 -5 0 -7 8 -6 18 2 10 15 20 32 23 16 4 22 7
13 8 -12 1 -15 8 -11 26 2 14 9 28 15 32 6 3 7 1 3 -5 -4 -7 -1 -12 8 -12 10
0 13 6 10 15 -4 8 -1 15 5 15 20 0 51 40 51 67 0 33 7 27 14 -13z m-3214 -9
c7 -9 8 -15 2 -15 -5 0 -12 7 -16 15 -3 8 -4 15 -2 15 2 0 9 -7 16 -15z m45
-35 c-3 -5 -12 -10 -18 -10 -7 0 -6 4 3 10 19 12 23 12 15 0z m5754 -44 c12
-13 24 -39 27 -58 5 -28 2 -39 -17 -57 l-23 -21 -2 -788 -1 -788 304 -308 304
-309 342 6 c188 4 421 7 518 7 l175 0 23 40 c33 58 76 85 137 85 168 0 226
-207 85 -302 -75 -51 -185 -13 -238 81 -7 13 -51 16 -273 21 -146 3 -387 5
-536 5 l-271 0 -194 193 c-107 106 -249 249 -316 319 l-122 126 -3 118 c-2 85
-9 1327 -8 1472 0 6 -7 12 -15 12 -31 0 -47 79 -25 120 13 23 57 49 86 50 11
0 30 -11 43 -24z m-4452 -97 c38 -14 81 -56 104 -101 40 -78 11 -197 -60 -243
-139 -91 -311 -3 -311 160 0 108 83 195 186 195 29 0 65 -5 81 -11z m4867 -4
c3 -8 1 -15 -4 -15 -6 0 -10 5 -10 11 0 6 -9 8 -22 4 -18 -5 -20 -4 -8 4 21
15 37 13 44 -4z m-3618 -22 c12 -4 12 -8 2 -21 -11 -13 -10 -15 10 -10 15 4
22 2 19 -5 -3 -9 -83 -13 -293 -15 -158 -2 -299 0 -311 3 -25 6 -32 40 -10 49
16 7 565 6 583 -1z m3639 -13 c3 -5 1 -10 -4 -10 -6 0 -11 5 -11 10 0 6 2 10
4 10 3 0 8 -4 11 -10z m50 -39 c-3 -6 -11 -11 -16 -11 -5 0 -4 6 3 14 14 16
24 13 13 -3z m54 -10 c11 -7 9 -12 -10 -22 -21 -11 -23 -11 -11 3 10 13 10 17
0 21 -7 3 -8 6 -3 6 6 0 16 -3 24 -8z m-59 -21 c0 -5 -5 -10 -11 -10 -5 0 -7
5 -4 10 3 6 8 10 11 10 2 0 4 -4 4 -10z m85 -54 c11 -8 17 -16 12 -16 -8 0
-87 51 -87 57 0 5 51 -22 75 -41z m55 -26 c8 -5 11 -10 5 -10 -5 0 -17 5 -25
10 -8 5 -10 10 -5 10 6 0 17 -5 25 -10z m233 -11 c20 -7 37 -16 37 -20 0 -8
-89 26 -100 38 -3 3 2 3 10 0 8 -3 32 -11 53 -18z m267 -269 c0 -5 -2 -10 -4
-10 -3 0 -8 5 -11 10 -3 6 -1 10 4 10 6 0 11 -4 11 -10z m78 -8 c2 -7 -1 -12
-8 -12 -6 0 -9 4 -6 9 4 5 1 12 -4 14 -6 3 -5 4 2 3 6 -1 14 -8 16 -14z m-868
-14 c57 -39 75 -73 75 -136 -1 -70 -23 -108 -79 -133 l-39 -17 2 -364 2 -363
77 -77 c42 -43 82 -78 89 -78 7 0 13 -4 13 -10 0 -5 5 -10 10 -10 6 0 10 15
10 33 0 17 7 41 15 51 14 18 15 12 15 -59 l0 -79 88 -88 87 -87 465 -1 c257 0
460 3 455 8 -6 5 -32 17 -60 27 -120 43 -796 392 -803 414 -3 10 0 10 17 2 18
-10 21 -9 21 6 0 14 2 15 9 5 7 -11 11 -11 24 2 18 18 37 21 37 5 0 -6 6 -9
13 -6 6 2 20 0 30 -5 9 -5 17 -6 17 -3 0 3 -25 17 -55 31 -30 14 -55 29 -55
34 0 14 86 -25 350 -158 380 -191 446 -218 905 -361 443 -139 745 -380 925
-739 106 -214 180 -557 180 -839 l0 -73 -54 0 c-30 0 -57 4 -60 8 -3 5 -6 52
-7 105 -4 233 -85 561 -187 762 -79 156 -250 346 -403 447 -160 107 -353 187
-550 228 -87 18 -149 20 -670 26 -316 3 -575 6 -576 7 -1 1 -102 101 -223 222
l-220 220 -1 110 c-1 60 -2 115 -4 120 -1 6 -3 125 -3 266 l-2 257 -30 12
c-40 17 -78 63 -86 105 -11 60 4 103 51 151 42 41 48 44 98 44 40 0 63 -6 87
-22z m-5579 -258 c66 -146 132 -294 149 -330 118 -257 297 -657 321 -718 21
-52 26 -78 20 -90 -5 -9 -39 -46 -76 -82 -52 -52 -68 -62 -75 -50 -5 8 -12 11
-17 7 -4 -5 -1 -12 7 -17 13 -8 11 -12 -9 -27 -49 -37 -192 -121 -221 -132
-28 -9 -31 -8 -44 22 -7 18 -46 104 -86 192 -39 88 -129 293 -200 455 -168
389 -191 440 -200 440 -3 0 -63 -132 -133 -292 -465 -1076 -424 -988 -466
-1010 -14 -7 -48 -25 -74 -40 -58 -34 -67 -35 -40 -5 21 23 61 106 66 135 1 9
6 23 11 30 4 7 5 16 2 19 -3 3 2 12 12 19 12 10 13 13 3 14 -7 0 -11 6 -7 15
3 8 3 22 -1 31 -5 12 -18 14 -72 10 -38 -3 -55 -1 -41 3 14 4 24 14 22 21 -2
8 4 11 18 7 11 -3 20 -2 20 2 0 15 -13 20 -29 11 -10 -5 -23 -5 -32 1 -17 10
-10 12 55 13 27 1 51 6 53 12 2 7 -14 9 -49 6 -55 -4 -78 -15 -78 -37 0 -8 6
-16 13 -18 7 -3 5 -6 -5 -6 -10 -1 -18 4 -18 9 0 6 -17 9 -37 8 -37 -1 -37 -1
-6 -5 30 -4 31 -5 15 -22 -15 -15 -23 -16 -63 -5 -40 10 -47 9 -57 -5 -9 -12
-9 -9 -1 13 8 25 6 48 -4 35 -7 -8 -127 -259 -127 -264 0 -7 -14 -37 -110
-240 -34 -71 -77 -164 -95 -205 -18 -41 -41 -95 -53 -120 -11 -25 -39 -88 -62
-140 -45 -101 -70 -139 -70 -107 0 11 4 15 12 11 8 -5 9 0 5 16 -3 13 -1 30 5
37 6 8 8 17 4 21 -10 9 -36 -27 -36 -50 0 -10 -5 -18 -11 -18 -6 0 -8 7 -5 15
3 8 9 22 12 30 3 8 1 15 -5 15 -6 0 -11 -9 -11 -20 0 -11 -4 -20 -9 -20 -5 0
-13 -9 -16 -21 -4 -11 -9 -19 -11 -16 -5 5 28 86 116 282 34 77 107 241 162
365 132 294 214 477 360 800 66 146 135 299 153 340 29 68 236 521 368 808
l52 112 304 -2 304 -3 118 -265z m2089 -1264 l0 -1534 -37 -4 c-60 -8 -508 -3
-521 6 -9 5 -12 371 -12 1536 l0 1530 285 0 285 0 0 -1534z m1879 1277 c16
-32 36 -82 45 -112 18 -60 21 -197 6 -221 -7 -11 -10 -5 -10 23 0 26 -4 37
-15 37 -8 0 -16 -8 -16 -17 -1 -17 -2 -17 -6 0 -3 13 -11 15 -30 11 -16 -4
-29 -2 -35 7 -7 10 -8 8 -4 -10 4 -18 2 -21 -7 -12 -6 6 -15 11 -21 11 -5 0
-6 -3 -3 -7 4 -3 1 -13 -7 -22 -7 -9 -16 -34 -19 -55 -23 -148 -212 -323 -517
-479 -311 -159 -298 -151 -398 -249 -53 -53 -122 -175 -122 -217 0 -11 -6 -21
-12 -21 -9 0 -8 -3 2 -10 11 -7 6 -8 -15 -5 -17 2 -32 4 -35 5 -3 2 -8 2 -12
1 -5 0 -8 4 -8 10 0 8 -5 8 -15 -1 -13 -11 -15 -8 -15 15 0 39 -12 24 -17 -22
-2 -20 -6 -39 -8 -42 -11 -10 -3 99 10 158 45 188 186 317 560 511 248 129
372 232 414 345 23 62 26 102 10 158 -10 37 -5 67 6 33 17 -52 17 -52 25 -31
4 11 5 27 3 35 -4 13 -4 13 6 0 9 -13 12 -12 17 8 6 21 7 21 20 5 10 -12 13
-13 12 -4 -2 9 10 18 30 24 37 12 39 24 12 77 -11 22 -18 40 -15 40 13 0 -84
103 -112 119 -23 12 -23 12 67 54 l75 36 62 -65 c35 -35 76 -90 92 -121z
m-610 -210 c0 -290 4 -276 -96 -330 -75 -41 -82 -43 -91 -26 -6 10 -12 121
-14 246 -3 220 -2 229 17 240 25 15 167 76 178 77 4 0 7 -93 6 -207z m2598
140 c-3 -10 -5 -2 -5 17 0 19 2 27 5 18 2 -10 2 -26 0 -35z m-1272 -280 c1
-30 -1 -32 -39 -31 -34 0 -45 -5 -74 -38 -54 -63 -54 -62 -42 -84 6 -12 7 -20
1 -20 -5 0 -11 6 -14 13 -2 7 -8 8 -13 3 -5 -5 -4 -11 4 -13 6 -3 12 -11 12
-20 0 -18 25 -45 34 -36 3 4 6 1 6 -5 0 -20 -20 -13 -51 17 -26 26 -29 37 -29
89 0 46 5 66 22 88 52 68 88 86 153 74 26 -5 30 -10 30 -37z m-7358 -78 c6
-25 6 -45 2 -45 -5 0 -9 3 -9 8 0 4 -4 24 -9 45 -5 20 -6 37 -2 37 4 0 12 -20
18 -45z m53 2 c0 -5 -4 -5 -10 -2 -5 3 -10 14 -10 23 0 15 2 15 10 2 5 -8 10
-19 10 -23z m7380 -67 c11 -11 20 -26 20 -32 0 -16 -37 -58 -70 -81 -30 -21
-99 -22 -126 -2 -18 14 -18 14 11 16 24 1 25 3 8 6 -37 7 -26 23 14 23 44 0
101 35 109 68 7 27 9 27 34 2z m-7401 -50 c0 -8 -6 0 -14 19 -8 18 -15 36 -15
40 1 13 29 -45 29 -59z m7199 -9 c3 -8 -1 -12 -9 -9 -7 2 -15 10 -17 17 -3 8
1 12 9 9 7 -2 15 -10 17 -17z m1249 -39 c-1 -22 -7 -39 -14 -39 -6 0 -11 9
-10 19 1 10 5 18 10 18 5 0 7 6 4 14 -5 12 0 26 9 26 2 0 3 -17 1 -38z m-20
-74 c2 -17 0 -19 -7 -8 -5 8 -6 18 -4 22 8 12 10 10 11 -14z m-1461 -103 c-3
-8 -2 -15 2 -15 10 0 -1 -106 -11 -116 -4 -4 -7 27 -7 69 0 50 4 77 11 77 6 0
9 -7 5 -15z m44 -58 c0 -14 -6 -24 -15 -24 -9 0 -15 10 -15 24 0 14 6 23 15
23 9 0 15 -9 15 -23z m1397 1 c-3 -8 -6 -5 -6 6 -1 11 2 17 5 13 3 -3 4 -12 1
-19z m-7953 -20 c-3 -4 -11 -5 -19 -1 -21 7 -19 12 4 10 11 0 18 -5 15 -9z
m244 -3 c2 -2 -17 -5 -43 -7 -38 -3 -43 -1 -29 9 14 10 59 9 72 -2z m-313 -5
c3 -5 1 -10 -4 -10 -6 0 -11 5 -11 10 0 6 2 10 4 10 3 0 8 -4 11 -10z m380 0
c-3 -5 -11 -10 -16 -10 -6 0 -7 5 -4 10 3 6 11 10 16 10 6 0 7 -4 4 -10z
m-300 -21 c11 -16 1 -19 -13 -3 -7 8 -8 14 -3 14 5 0 13 -5 16 -11z m245 1
c-19 -13 -30 -13 -30 0 0 6 10 10 23 10 18 0 19 -2 7 -10z m6297 -12 c-3 -8
-6 -5 -6 6 -1 11 2 17 5 13 3 -3 4 -12 1 -19z m-6367 2 c0 -5 -2 -10 -4 -10
-3 0 -8 5 -11 10 -3 6 -1 10 4 10 6 0 11 -4 11 -10z m107 -11 c-24 -14 -188
-38 -181 -27 3 4 20 8 37 9 18 0 57 7 87 14 71 16 79 17 57 4z m-431 -35 c-6
-31 -16 -45 -16 -21 0 18 10 47 16 47 3 0 2 -12 0 -26z m193 -15 c-11 -11 -19
-28 -19 -39 0 -11 -5 -20 -11 -20 -5 0 -8 -4 -5 -9 4 -5 2 -20 -3 -33 -8 -20
-9 -18 -9 15 1 20 5 37 10 37 4 0 8 11 8 25 0 14 -4 25 -10 25 -5 0 -10 5 -10
11 0 5 4 8 9 5 5 -3 12 1 15 9 4 12 9 13 24 4 19 -12 19 -12 1 -30z m6501 31
c0 -5 -5 -10 -11 -10 -5 0 -7 5 -4 10 3 6 8 10 11 10 2 0 4 -4 4 -10z m-6571
-92 c-12 -21 -14 -21 -17 -5 -2 10 2 33 10 50 l13 32 3 -27 c2 -15 -2 -37 -9
-50z m5918 0 c108 -114 157 -288 122 -438 -17 -73 -66 -162 -129 -231 -64 -71
-144 -130 -320 -234 -282 -166 -378 -247 -431 -359 -30 -64 -31 -72 -27 -164
6 -112 31 -189 78 -239 24 -25 27 -33 14 -33 -31 0 -152 134 -187 207 -30 64
-32 74 -32 183 0 113 1 117 38 195 30 63 55 95 120 160 46 44 123 107 172 140
286 191 404 296 426 377 14 54 7 144 -16 188 -10 19 -39 57 -66 85 l-48 51 83
43 c46 23 101 55 122 71 22 16 41 30 45 30 3 0 19 -15 36 -32z m-5962 -148
c-3 -5 -15 -10 -25 -10 -10 0 -22 5 -25 10 -4 6 7 10 25 10 18 0 29 -4 25 -10z
m6405 -4 c0 -3 -4 -8 -10 -11 -5 -3 -10 -1 -10 4 0 6 5 11 10 11 6 0 10 -2 10
-4z m-6480 -26 c10 0 30 -4 44 -10 l26 -9 -36 -78 c-19 -42 -94 -172 -166
-288 -144 -230 -178 -301 -202 -417 -29 -141 -16 -259 40 -376 28 -58 125
-168 188 -214 21 -15 35 -28 29 -28 -15 0 -63 24 -63 33 0 4 -7 7 -16 7 -12 0
-8 -7 12 -22 49 -37 51 -41 5 -18 -103 52 -215 199 -250 330 -59 216 -4 449
165 707 59 90 104 168 104 177 0 16 -18 3 -28 -19 -7 -15 -20 -25 -32 -25 -11
0 -20 -5 -20 -11 0 -5 5 -7 10 -4 6 3 10 1 10 -5 0 -7 -7 -9 -17 -6 -9 4 -20
1 -24 -6 -4 -7 -10 -10 -13 -7 -3 3 15 37 41 75 25 38 64 106 85 151 37 79 40
82 64 73 14 -6 34 -10 44 -10z m5651 -7 c2 -10 3 -88 1 -174 l-3 -157 -59 -46
c-33 -25 -64 -46 -69 -46 -16 0 -21 44 -21 201 l0 157 68 40 c77 47 78 48 83
25z m1319 -128 c0 -43 -3 -55 -16 -55 -11 0 -14 6 -8 23 4 12 8 33 9 47 3 35
4 40 10 40 3 0 5 -25 5 -55z m-1910 -45 c0 -5 -2 -10 -4 -10 -3 0 -8 5 -11 10
-3 6 -1 10 4 10 6 0 11 -4 11 -10z m1908 -46 c0 -17 -3 -22 -8 -13 -5 6 -6 18
-3 26 8 19 11 16 11 -13z m-5848 -14 c0 -5 -7 -7 -15 -4 -8 4 -15 8 -15 10 0
2 7 4 15 4 8 0 15 -4 15 -10z m130 -15 c7 -8 8 -15 2 -15 -5 0 -15 7 -22 15
-7 8 -8 15 -2 15 5 0 15 -7 22 -15z m4 -34 c3 -5 -1 -14 -9 -21 -8 -7 -12 -16
-9 -21 3 -5 0 -9 -5 -9 -14 0 -14 17 -1 25 5 3 7 12 3 20 -6 16 12 21 21 6z
m-1469 -21 c3 -5 1 -10 -4 -10 -6 0 -11 5 -11 10 0 6 2 10 4 10 3 0 8 -4 11
-10z m-49 -25 c-9 -9 -16 -21 -16 -27 0 -6 -3 -8 -6 -5 -4 4 1 18 10 33 10 14
20 23 23 20 3 -3 -2 -12 -11 -21z m3307 -92 c82 -184 179 -407 188 -430 5 -14
36 -85 68 -157 165 -367 232 -519 262 -593 7 -19 5 -23 -11 -23 -11 0 -20 5
-20 11 0 5 5 7 11 4 10 -7 3 13 -51 132 -24 55 -36 70 -49 66 -12 -3 -13 -2
-3 4 17 13 6 40 -20 46 -12 4 -17 10 -13 17 6 9 10 9 16 -1 5 -8 9 -9 9 -4 0
16 -13 31 -32 38 -10 3 -18 11 -18 16 0 6 7 7 17 4 10 -4 14 -2 9 5 -3 6 -22
9 -44 6 -20 -2 -31 -2 -24 2 17 8 15 27 -2 21 -9 -4 -16 4 -21 21 -4 15 -11
30 -17 33 -8 5 -6 13 5 24 20 20 23 32 4 16 -17 -13 -28 -4 -20 17 4 9 2 13
-4 9 -12 -8 -128 222 -229 457 -19 44 -53 117 -76 163 l-42 84 35 34 c18 19
37 34 40 34 4 1 18 -25 32 -56z m2266 -14 c9 -1 23 -1 31 0 10 1 11 -1 3 -6
-8 -6 -5 -15 11 -34 19 -22 24 -23 35 -12 11 12 10 14 -4 11 -10 -2 -20 2 -22
8 -5 16 44 15 57 -1 8 -10 3 -18 -19 -34 -16 -12 -32 -21 -36 -21 -11 0 -135
128 -135 139 0 5 14 -4 31 -20 17 -16 39 -30 48 -30z m1628 47 c0 -16 -18 -17
-29 -1 -5 6 -8 5 -8 -2 0 -7 -7 -13 -16 -13 -8 0 -13 -4 -10 -8 3 -5 -1 -9 -9
-9 -8 0 -12 4 -9 9 3 4 1 8 -5 8 -17 0 -24 -68 -18 -181 4 -85 3 -109 -8 -113
-26 -10 -35 21 -34 125 0 144 4 163 41 181 44 20 105 23 105 4z m137 -58 c3
-13 6 -98 6 -190 0 -141 -2 -169 -16 -183 -28 -28 -34 0 -34 176 0 153 -2 168
-21 193 -11 14 -16 26 -10 26 6 0 11 7 11 15 0 24 56 -8 64 -37z m-77 36 c-3
-3 -12 -4 -19 -1 -8 3 -5 6 6 6 11 1 17 -2 13 -5z m-1607 -34 c0 -5 -2 -10 -4
-10 -3 0 -8 5 -11 10 -3 6 -1 10 4 10 6 0 11 -4 11 -10z m3331 -85 c82 -29
126 -94 114 -167 -5 -30 -11 -38 -22 -33 -13 4 -14 3 -3 -10 11 -13 10 -14 -4
-9 -9 3 -16 1 -16 -5 0 -6 5 -11 11 -11 5 0 7 -5 4 -10 -4 -6 -11 -8 -16 -5
-5 3 -6 -1 -3 -10 5 -12 -4 -20 -35 -32 l-41 -16 0 -229 c0 -145 -4 -228 -10
-228 -5 0 -10 10 -10 23 0 33 -11 67 -20 62 -4 -2 -6 28 -5 68 2 50 6 71 15
69 6 -1 8 2 5 8 -4 6 -12 9 -19 7 -7 -3 -11 8 -11 33 0 21 3 36 7 34 5 -3 8 2
8 10 0 9 -4 16 -9 16 -4 0 -8 8 -8 18 0 81 -4 103 -20 109 -20 7 -72 59 -90
91 -19 32 -16 118 4 150 22 34 40 49 78 67 38 18 44 18 96 0z m-1324 -40 c3
-34 -10 -49 -20 -22 -6 16 3 70 11 63 2 -3 6 -21 9 -41z m-37 -32 c0 -21 -3
-24 -9 -14 -5 8 -7 20 -4 28 8 21 13 15 13 -14z m40 -34 c0 -5 -4 -9 -10 -9
-5 0 -10 7 -10 16 0 8 5 12 10 9 6 -3 10 -10 10 -16z m176 5 c18 -14 18 -15
-6 -9 l-25 7 25 -18 c14 -11 29 -18 34 -16 13 4 46 -29 40 -40 -3 -5 2 -18 12
-29 9 -10 13 -19 8 -19 -11 0 -134 121 -134 132 0 13 25 9 46 -8z m-219 -96
c-3 -7 -5 -2 -5 12 0 14 2 19 5 13 2 -7 2 -19 0 -25z m-867 -36 c0 -34 -3 -38
-22 -36 -35 4 -35 4 -8 15 19 8 21 12 11 18 -12 8 -12 11 0 25 19 21 19 21 19
-22z m897 6 c-3 -7 -5 -2 -5 12 0 14 2 19 5 13 2 -7 2 -19 0 -25z m-25 -71
c-7 -29 -15 -10 -14 33 0 22 1 43 3 48 4 15 15 -64 11 -81z m338 73 c0 -5 -2
-10 -4 -10 -3 0 -8 5 -11 10 -3 6 -1 10 4 10 6 0 11 -4 11 -10z m48 -15 c-3
-3 -9 2 -12 12 -6 14 -5 15 5 6 7 -7 10 -15 7 -18z m-1831 -37 c42 -59 74
-124 89 -183 16 -58 18 -203 4 -225 -7 -11 -10 0 -10 38 0 36 -4 51 -11 46 -8
-4 -9 1 -4 16 5 14 3 20 -3 16 -6 -3 -22 24 -37 64 -29 77 -96 184 -126 203
-11 7 -19 15 -19 18 0 9 62 49 76 49 6 0 24 -19 41 -42z m1803 12 c-16 -10
-30 -4 -30 11 0 6 5 7 10 4 6 -3 10 -1 10 6 0 10 3 10 12 1 10 -10 10 -15 -2
-22z m2153 9 c15 -24 -1 -88 -30 -115 -14 -13 -41 -27 -61 -30 -29 -6 -39 -3
-54 16 -26 32 -23 55 7 56 33 2 55 21 72 62 10 25 19 32 35 30 11 -2 25 -10
31 -19z m-2482 -69 c-5 -34 -5 -34 -12 15 -3 28 -4 54 -1 60 10 16 19 -39 13
-75z m576 -185 c1 -58 1 -58 -8 -21 -5 22 -12 42 -16 45 -3 3 -3 -4 0 -16 5
-23 -8 -33 -15 -12 -2 6 -4 -20 -4 -57 0 -39 4 -72 10 -76 8 -5 7 -8 -1 -8
-10 0 -13 -25 -13 -92 0 -153 -9 -93 -15 98 l-5 179 -92 92 c-51 51 -87 93
-80 93 6 0 12 7 12 16 0 14 3 14 15 4 13 -11 13 -15 3 -21 -10 -7 -10 -11 1
-21 9 -8 11 -8 7 -1 -3 6 1 13 11 15 15 3 16 4 0 20 -9 9 -17 20 -17 25 0 4
47 -39 103 -97 l102 -105 2 -60z m1551 248 l82 -6 0 -40 c0 -39 0 -39 -32 -33
-18 3 -88 9 -155 12 l-121 7 -55 -52 c-29 -28 -58 -51 -63 -51 -5 0 -2 5 6 11
13 9 13 10 0 6 -8 -2 -15 -10 -15 -18 -1 -20 -14 -39 -28 -39 -8 0 -8 3 1 12
18 18 14 27 -9 23 -29 -6 -36 -14 -20 -24 8 -5 9 -11 3 -15 -5 -3 -13 2 -16
11 -5 11 2 25 19 40 14 13 25 19 25 13 0 -6 4 -9 10 -5 5 3 7 12 4 19 -6 15
80 114 110 126 26 11 143 12 254 3z m-6827 -44 c22 -11 129 -241 236 -504 13
-33 44 -101 67 -150 36 -76 47 -91 67 -92 13 0 101 -2 196 -3 110 -1 173 -5
175 -12 2 -6 13 -8 26 -4 12 4 20 12 17 17 -4 5 1 9 9 9 23 0 19 -15 -6 -28
-21 -10 -20 -11 10 -6 19 2 32 0 32 -6 0 -7 -22 -10 -57 -9 -32 1 -146 1 -253
0 -107 -1 -207 -2 -221 -1 -20 0 -28 6 -33 26 -4 14 -22 59 -41 99 -18 40 -48
106 -65 146 -18 41 -45 102 -61 136 -15 34 -51 116 -80 182 -42 99 -55 121
-73 122 -11 0 -309 0 -661 -1 -352 -1 -651 3 -664 8 -23 8 -23 9 16 40 33 26
49 31 104 34 160 7 1246 5 1260 -3z m4266 -101 c-3 -8 -6 -5 -6 6 -1 11 2 17
5 13 3 -3 4 -12 1 -19z m437 6 c3 -8 2 -12 -4 -9 -6 3 -10 10 -10 16 0 14 7
11 14 -7z m-1764 -29 c10 -12 12 -108 8 -443 -5 -382 -8 -433 -24 -482 -34
-100 -75 -67 -88 70 -12 138 -18 775 -7 802 10 27 63 68 87 68 6 0 17 -7 24
-15z m1765 -5 c3 -5 1 -10 -4 -10 -6 0 -11 5 -11 10 0 6 2 10 4 10 3 0 8 -4
11 -10z m872 -62 c-3 -7 -5 -2 -5 12 0 14 2 19 5 13 2 -7 2 -19 0 -25z m804 8
c5 3 9 0 9 -6 0 -15 -23 -7 -26 8 -1 7 0 8 3 2 2 -5 9 -8 14 -4z m35 -25 c-4
-6 -12 -11 -18 -11 -7 0 -7 4 1 13 6 8 9 16 7 19 -1 3 1 2 7 -2 5 -5 6 -13 3
-19z m328 -21 c0 -25 -2 -153 -3 -286 -2 -132 -7 -247 -12 -255 -7 -11 -9 -10
-9 6 0 17 -2 17 -10 5 -7 -11 -5 -19 7 -27 15 -12 15 -13 -6 -13 -12 0 -20 4
-16 9 3 5 1 12 -4 16 -12 7 -15 577 -4 589 4 4 19 6 33 4 23 -3 25 -7 24 -48z
m411 17 c1 -31 -19 -41 -76 -35 -24 2 -33 7 -30 18 2 8 4 22 3 31 0 13 9 16
51 15 50 -1 52 -2 52 -29z m-2337 -62 c-3 -3 -9 2 -12 12 -6 14 -5 15 5 6 7
-7 10 -15 7 -18z m1457 -5 c-12 -13 -18 -35 -18 -60 1 -53 -13 -51 -15 2 -2
31 4 48 20 65 26 28 39 21 13 -7z m-998 -67 c-2 -16 -4 -5 -4 22 0 28 2 40 4
28 2 -13 2 -35 0 -50z m-457 21 c0 -34 -1 -35 -17 -18 -13 13 -14 19 -5 22 6
2 12 10 12 18 0 8 2 14 5 14 3 0 5 -16 5 -36z m1480 -141 c0 -158 -8 -192 -12
-50 -1 48 -5 87 -10 87 -4 0 -8 5 -8 11 0 5 5 7 11 3 6 -3 10 1 9 12 -4 32 0
84 5 84 3 0 5 -66 5 -147z m-2527 111 c4 -1 10 -2 13 -3 3 0 2 -6 -1 -11 -5
-8 -11 -8 -19 -1 -7 6 -16 8 -19 4 -4 -3 -7 1 -7 11 0 11 4 14 13 9 6 -4 15
-8 20 -9z m3368 -23 c7 10 9 3 7 -21 -3 -36 -22 -48 -56 -35 -14 5 -14 7 -2
15 9 5 19 5 27 -2 11 -9 12 -6 3 16 -5 15 -7 33 -3 39 5 8 9 6 11 -7 3 -15 6
-16 13 -5z m-891 -66 l-8 -40 -1 50 c-1 29 3 45 8 40 5 -6 6 -28 1 -50z m835
46 c3 -6 -3 -9 -14 -8 -11 0 -17 5 -15 9 7 11 22 10 29 -1z m-8974 -73 c-26
-24 -35 -28 -44 -18 -9 9 -9 11 -1 7 7 -4 14 3 18 17 4 17 13 24 32 24 l27 0
-32 -30z m-364 0 c-3 -8 -6 -5 -6 6 -1 11 2 17 5 13 3 -3 4 -12 1 -19z m-33
-7 c3 -5 -8 -11 -24 -13 -35 -5 -41 8 -7 15 12 2 23 5 24 6 1 0 4 -3 7 -8z
m7563 -23 c-3 -7 -5 -2 -5 12 0 14 2 19 5 13 2 -7 2 -19 0 -25z m741 -78 c1
-67 -2 -110 -8 -110 -6 0 -10 44 -10 110 0 61 4 110 8 110 5 0 9 -49 10 -110z
m-5323 74 c-17 -18 -21 -18 -29 2 -3 8 -2 12 4 9 6 -3 10 -2 10 4 0 6 7 8 15
5 12 -5 12 -8 0 -20z m5552 -16 c-3 -7 -5 -2 -5 12 0 14 2 19 5 13 2 -7 2 -19
0 -25z m-8190 8 c0 -8 -6 -12 -14 -9 -7 3 -10 9 -7 14 8 14 21 11 21 -5z
m2669 -28 c4 4 2 -1 -5 -10 -10 -14 -10 -20 0 -31 8 -8 21 -12 31 -9 14 3 17
0 12 -12 -3 -9 -1 -16 5 -16 6 0 11 -5 11 -12 0 -6 -8 -4 -19 6 -15 13 -20 14
-24 4 -7 -17 -25 7 -34 45 -3 15 -10 27 -15 27 -5 0 -6 5 -3 10 5 8 11 8 19 1
7 -6 17 -7 22 -3z m4504 -34 c0 -19 -4 -33 -8 -30 -8 5 -4 66 4 66 2 0 4 -16
4 -36z m-7953 -20 c-3 -3 -12 -4 -19 -1 -8 3 -5 6 6 6 11 1 17 -2 13 -5z m211
-61 c-10 -2 -26 -2 -35 0 -10 3 -2 5 17 5 19 0 27 -2 18 -5z m47 -14 c-4 -5
-14 -8 -23 -8 -15 1 -15 2 1 6 9 2 14 9 11 15 -4 7 -2 8 5 4 6 -4 9 -12 6 -17z
m3235 10 c0 -5 -4 -7 -10 -4 -5 3 -10 1 -10 -4 0 -6 5 -11 10 -11 6 0 10 -9
10 -20 0 -11 -4 -20 -10 -20 -5 0 -10 6 -10 13 0 6 -3 22 -6 35 -5 16 -2 22
10 22 9 0 16 -5 16 -11z m32 -26 c6 -23 -1 -43 -14 -43 -7 0 -6 5 1 14 8 10 9
16 1 21 -12 8 -13 25 -1 25 5 0 11 -8 13 -17z m5215 -28 c0 -8 -4 -15 -9 -15
-4 0 -8 7 -8 15 0 8 4 15 8 15 5 0 9 -7 9 -15z m-3702 -870 c230 -58 420 -206
515 -400 61 -125 75 -188 75 -350 0 -119 -4 -151 -23 -215 -43 -136 -97 -226
-197 -326 -80 -81 -103 -98 -195 -142 -162 -79 -203 -87 -420 -86 -172 0 -191
2 -273 27 -231 71 -387 194 -480 380 -59 118 -80 210 -81 362 -1 151 16 219
89 364 165 329 580 490 990 386z m1775 20 c150 -22 251 -64 386 -157 121 -83
120 -71 9 -179 -53 -52 -101 -95 -106 -97 -5 -2 -34 17 -66 43 -110 90 -213
125 -368 125 -155 0 -277 -46 -374 -141 -67 -67 -95 -109 -120 -182 -65 -189
-21 -399 114 -533 104 -105 216 -148 385 -148 162 0 272 41 383 144 l44 40 59
-53 c32 -28 79 -71 104 -94 l45 -42 -21 -28 c-59 -80 -213 -173 -354 -214
-107 -30 -335 -38 -451 -14 -376 76 -609 320 -649 679 -60 531 410 938 980
851z m3103 -10 c130 -27 293 -109 383 -192 97 -90 180 -228 216 -362 30 -107
29 -304 0 -414 -36 -130 -94 -229 -197 -333 -80 -82 -101 -97 -195 -142 -161
-76 -213 -87 -425 -87 -210 0 -255 9 -410 85 -189 91 -328 252 -397 456 -20
61 -23 88 -23 229 1 147 3 167 28 240 95 284 366 498 677 535 92 11 254 4 343
-15z m-6898 -5 c140 -12 235 -39 354 -97 76 -38 111 -62 177 -128 68 -68 89
-96 127 -175 58 -121 78 -211 78 -354 0 -237 -64 -392 -228 -546 -82 -78 -190
-137 -323 -176 l-95 -28 -442 -4 -443 -3 0 755 0 756 253 3 c138 1 293 3 342
5 50 1 140 -3 200 -8z m5755 -130 l0 -130 -260 0 -260 0 0 -625 0 -625 -160 0
-160 0 0 625 0 625 -252 2 -253 3 0 125 0 125 290 5 c160 3 462 4 673 2 l382
-2 0 -130z m2945 114 c99 -20 224 -83 291 -146 121 -115 172 -315 128 -508
-29 -128 -112 -234 -236 -300 -32 -17 -58 -35 -58 -40 0 -4 24 -41 53 -81 29
-41 77 -108 107 -149 30 -41 85 -118 123 -170 l69 -95 -173 -3 -174 -3 -28 33
c-15 18 -75 101 -132 183 -57 83 -116 167 -130 188 l-26 37 -200 0 -199 0 0
-220 0 -220 -160 0 -160 0 0 755 0 755 298 2 c389 4 522 0 607 -18z m-11648
-14 c23 -43 243 -501 243 -504 0 -2 61 -131 136 -287 185 -385 224 -469 219
-469 -2 0 -27 43 -56 95 -28 52 -55 95 -60 95 -6 0 -7 5 -4 10 7 12 -74 180
-87 180 -4 0 -8 -4 -8 -10 0 -5 -5 -10 -11 -10 -5 0 -7 5 -4 10 3 6 2 10 -3
10 -5 0 -15 -13 -22 -29 -6 -16 -21 -32 -32 -34 -13 -4 -19 -11 -15 -20 4 -11
0 -13 -14 -10 -18 5 -24 -4 -20 -34 1 -7 -2 -13 -8 -13 -5 0 -11 6 -14 13 -3
9 -7 9 -18 0 -8 -6 -37 -13 -65 -16 -28 -2 -56 -7 -63 -11 -7 -5 -18 -3 -24 3
-14 14 -47 14 -47 0 0 -7 -27 -9 -79 -7 -44 2 -79 0 -78 -4 1 -3 -2 -6 -7 -6
-5 0 -13 -6 -17 -14 -6 -9 -9 -6 -9 12 0 18 -3 21 -9 11 -5 -7 -14 -10 -20 -6
-15 9 4 35 25 35 8 0 14 5 14 11 0 5 5 7 12 3 7 -4 8 -3 4 4 -5 9 -12 8 -27
-1 -16 -10 -21 -9 -28 2 -5 8 -14 10 -21 6 -9 -6 -8 -10 4 -17 9 -5 13 -14 9
-21 -4 -7 -8 -16 -8 -22 0 -13 -20 -18 -21 -5 -1 6 -2 19 -3 30 0 11 -6 20
-12 20 -5 0 -7 -4 -4 -10 3 -5 1 -10 -6 -10 -6 0 -20 -9 -29 -20 -11 -12 -21
-17 -24 -11 -4 5 -1 13 6 18 7 4 13 15 13 23 0 8 5 14 11 13 6 -1 11 3 11 10
0 7 -14 12 -34 12 -18 0 -31 -4 -29 -10 1 -5 11 -9 21 -7 10 2 14 -1 10 -7 -7
-12 -35 -15 -35 -3 0 4 -23 5 -51 3 -47 -3 -51 -1 -45 15 5 17 5 17 -6 3 -10
-12 -20 -14 -43 -7 -18 4 -31 4 -33 -2 -2 -6 -9 -10 -15 -10 -8 0 -7 4 1 12
17 17 15 28 -5 21 -11 -5 -14 -3 -8 6 10 18 -16 33 -32 19 -7 -5 -19 -8 -27
-5 -11 4 -13 1 -9 -10 5 -12 2 -15 -10 -10 -9 3 -17 2 -17 -3 0 -6 5 -10 11
-10 5 0 8 -4 4 -9 -3 -6 -14 -9 -25 -8 -10 1 -16 5 -14 9 8 13 -26 22 -38 10
-8 -8 -19 -7 -39 4 -31 16 -39 27 -12 17 10 -4 14 -2 9 5 -3 6 3 14 16 18 l23
7 -23 8 c-22 8 -31 29 -12 29 6 0 10 5 10 10 0 6 -4 10 -9 10 -11 0 -26 -39
-22 -59 1 -7 -2 -11 -6 -8 -5 3 -19 -14 -32 -39 -35 -65 -44 -54 -11 14 15 32
52 110 80 173 46 101 173 373 303 650 25 52 52 112 61 132 l15 37 168 -2 c167
-3 167 -3 180 -28z m1219 -670 c1 -436 -2 -686 -8 -670 -5 14 -10 80 -10 147
-1 112 -7 146 -21 109 -3 -7 0 -19 6 -25 8 -8 8 -11 -2 -11 -7 0 -9 -4 -6 -10
3 -5 1 -10 -4 -10 -6 0 -11 6 -11 13 0 7 -7 4 -15 -7 -13 -17 -15 -18 -15 -3
0 9 -4 17 -8 17 -5 0 -8 -16 -7 -35 0 -19 0 -35 -1 -35 -12 0 -34 14 -34 22 0
5 5 6 10 3 6 -3 10 0 10 8 0 7 -11 19 -25 25 -21 10 -25 9 -25 -3 0 -8 -6 -15
-14 -15 -9 0 -14 -9 -13 -20 1 -11 6 -18 12 -16 5 2 9 9 8 15 -2 6 4 11 12 11
13 0 14 -4 5 -20 -6 -11 -9 -24 -6 -29 3 -5 -9 -12 -27 -15 -33 -6 -49 -36
-20 -36 8 0 11 -4 8 -10 -3 -5 0 -10 7 -10 9 0 9 -3 -2 -10 -20 -13 -40 -13
-40 1 0 5 6 7 13 3 9 -6 9 -5 0 7 -12 15 -12 93 0 106 4 3 2 12 -3 18 -8 9 -6
14 5 19 15 5 14 9 -3 31 -13 17 -19 37 -17 65 1 26 -2 39 -9 37 -6 -2 -10 -16
-10 -30 1 -15 -4 -27 -10 -27 -6 0 -4 -5 4 -10 8 -5 10 -10 4 -10 -14 0 -13
-157 0 -179 6 -10 5 -12 -2 -7 -7 4 -12 3 -12 -3 0 -5 5 -13 10 -16 7 -4 7
-13 0 -26 -8 -13 -7 -19 0 -19 7 0 8 -6 0 -19 -5 -11 -10 -31 -10 -45 0 -14
-4 -27 -10 -31 -11 -7 -15 157 -18 898 l-3 558 153 -3 153 -3 1 -695z m-826
-251 c0 -5 -4 -7 -10 -4 -5 3 -10 1 -10 -4 0 -6 -8 -11 -17 -11 -16 1 -16 2 1
15 23 18 36 19 36 4z m-959 -56 c12 -15 12 -16 -3 -10 -11 4 -18 2 -18 -5 0
-6 -2 -9 -5 -6 -5 5 4 38 10 38 1 0 9 -8 16 -17z m19 -42 c0 -5 -7 -12 -16
-15 -14 -5 -15 -4 -4 9 14 17 20 19 20 6z m30 -1 c0 -5 -4 -10 -10 -10 -5 0
-10 5 -10 10 0 6 5 10 10 10 6 0 10 -4 10 -10z m53 -7 c-7 -2 -19 -2 -25 0 -7
3 -2 5 12 5 14 0 19 -2 13 -5z m127 -14 c0 -5 -7 -6 -15 -3 -8 4 -21 2 -28 -3
-15 -11 -57 -15 -57 -5 0 4 12 9 28 10 15 1 28 6 30 11 4 11 42 2 42 -10z m71
-20 c-29 -27 -39 -17 -11 11 12 12 24 19 28 16 3 -4 -5 -16 -17 -27z m477 18
c14 6 15 5 2 -9 -10 -11 -17 -12 -26 -4 -7 6 -9 15 -6 21 3 5 7 4 9 -2 3 -7
12 -9 21 -6z m-61 -3 c-3 -3 -12 -4 -19 -1 -8 3 -5 6 6 6 11 1 17 -2 13 -5z
m-257 -14 c0 -5 -2 -10 -4 -10 -3 0 -8 5 -11 10 -3 6 -1 10 4 10 6 0 11 -4 11
-10z m197 4 c-3 -3 -12 -4 -19 -1 -8 3 -5 6 6 6 11 1 17 -2 13 -5z m-307 -30
c0 -2 -9 -4 -20 -4 -11 0 -20 4 -20 9 0 5 9 7 20 4 11 -3 20 -7 20 -9z m36 7
c-4 -5 -1 -12 4 -14 6 -3 5 -4 -2 -3 -15 3 -23 26 -8 26 6 0 9 -4 6 -9z m-306
-5 c0 -3 -4 -8 -10 -11 -5 -3 -10 -1 -10 4 0 6 5 11 10 11 6 0 10 -2 10 -4z
m-387 -41 c-3 -9 -8 -14 -10 -11 -3 3 -2 9 2 15 9 16 15 13 8 -4z m912 -8 c39
-2 -67 -3 -235 -3 -168 0 -262 2 -210 5 89 6 286 5 445 -2z m143 -4 c-10 -2
-28 -2 -40 0 -13 2 -5 4 17 4 22 1 32 -1 23 -4z m77 -22 c4 -14 29 -72 56
-129 28 -57 49 -106 47 -108 -2 -1 -34 57 -70 130 -42 85 -61 133 -53 133 8 0
17 -12 20 -26z m-855 5 c0 -3 -4 -8 -10 -11 -5 -3 -10 -1 -10 4 0 6 5 11 10
11 6 0 10 -2 10 -4z m-303 -28 c-3 -8 -6 -5 -6 6 -1 11 2 17 5 13 3 -3 4 -12
1 -19z m2073 12 c0 -5 -2 -10 -4 -10 -2 0 -12 -3 -22 -7 -16 -6 -17 -5 -4 10
17 19 30 22 30 7z m0 -36 c0 -8 -5 -12 -10 -9 -6 4 -8 11 -5 16 9 14 15 11 15
-7z m-50 -5 c0 -5 -4 -8 -9 -4 -5 3 -12 1 -16 -5 -3 -5 -11 -10 -18 -10 -6 0
-2 7 9 15 23 17 34 19 34 4z m-2053 -33 c-7 -14 -13 -23 -15 -21 -7 6 9 45 18
45 4 0 3 -11 -3 -24z m1980 -8 c2 -17 0 -19 -7 -8 -5 8 -6 18 -4 22 8 12 10
10 11 -14z m-398 -104 c21 -35 24 -58 4 -32 -12 16 -34 68 -29 68 2 0 14 -16
25 -36z m51 -106 c0 -5 -68 -8 -151 -8 -133 0 -153 2 -165 18 -7 9 -14 21 -14
27 0 5 7 0 15 -12 14 -20 22 -21 152 -19 l138 3 -3 24 -2 24 14 -25 c9 -14 15
-28 16 -32z m-1710 -4 c0 -2 -9 -4 -20 -4 -11 0 -20 4 -20 9 0 5 9 7 20 4 11
-3 20 -7 20 -9z m263 4 c-2 -5 -59 -7 -126 -6 -82 1 -106 3 -72 7 71 8 204 7
198 -1z m1906 -4 c2 -2 -50 -4 -117 -4 -67 0 -122 4 -122 9 0 8 231 4 239 -5z
m61 6 c0 -5 -12 -10 -27 -9 -25 0 -26 1 -8 9 27 12 35 12 35 0z m17304 -1181
c21 -66 74 -154 131 -218 61 -67 236 -171 289 -171 9 0 16 -8 16 -17 0 -13
-17 -23 -61 -37 -66 -21 -154 -74 -218 -131 -67 -61 -171 -236 -171 -289 0 -9
-8 -16 -17 -16 -13 0 -23 17 -37 61 -21 66 -74 154 -131 218 -61 67 -236 171
-289 171 -9 0 -16 8 -16 18 0 12 17 22 61 36 66 21 154 74 218 131 67 61 171
236 171 289 0 9 8 16 18 16 12 0 22 -17 36 -61z"/>
<path d="M14877 12403 c-10 -9 -9 -23 1 -23 5 0 9 7 9 15 0 17 -1 18 -10 8z"/>
<path d="M14880 12359 c0 -5 5 -7 10 -4 6 3 10 8 10 11 0 2 -4 4 -10 4 -5 0
-10 -5 -10 -11z"/>
<path d="M14930 12360 c0 -5 5 -10 10 -10 6 0 10 5 10 10 0 6 -4 10 -10 10 -5
0 -10 -4 -10 -10z"/>
<path d="M14900 12340 c0 -5 5 -10 11 -10 5 0 7 5 4 10 -3 6 -8 10 -11 10 -2
0 -4 -4 -4 -10z"/>
<path d="M14855 12308 c-22 -14 -25 -18 -10 -16 20 3 51 26 44 32 -2 2 -17 -5
-34 -16z"/>
<path d="M17220 8170 c0 -5 5 -10 10 -10 6 0 10 5 10 10 0 6 -4 10 -10 10 -5
0 -10 -4 -10 -10z"/>
<path d="M17335 8150 c3 -5 11 -10 16 -10 6 0 7 5 4 10 -3 6 -11 10 -16 10 -6
0 -7 -4 -4 -10z"/>
<path d="M17343 8074 c0 -14 34 -30 44 -20 4 3 -1 6 -11 6 -9 0 -15 4 -12 9 3
5 0 11 -7 14 -8 3 -14 -1 -14 -9z"/>
<path d="M17397 8060 c21 -24 30 -25 30 -5 0 8 -4 12 -8 9 -4 -2 -10 0 -14 6
-3 5 -10 10 -15 10 -6 0 -2 -9 7 -20z"/>
<path d="M17440 8058 c0 -4 7 -8 15 -8 8 0 15 4 15 8 0 5 -7 9 -15 9 -8 0 -15
-4 -15 -9z"/>
<path d="M14361 12189 c-10 -37 -17 -49 -28 -45 -8 3 -17 6 -19 6 -2 0 -4 7
-4 15 0 8 -5 15 -11 15 -7 0 -9 -9 -5 -22 3 -13 6 -29 6 -37 0 -11 3 -11 15
-1 12 10 15 10 15 -3 0 -18 -27 -30 -36 -15 -4 7 -9 6 -15 -3 -5 -9 -9 -9 -9
-3 0 16 -39 25 -59 14 -33 -18 -115 -40 -148 -40 -20 0 -33 -5 -33 -12 0 -7
-5 -5 -11 5 -9 15 -13 16 -25 6 -12 -9 -20 -9 -39 1 -14 7 -25 17 -25 22 0 4
-5 8 -11 8 -8 0 -8 -4 0 -14 8 -10 9 -16 1 -21 -5 -3 -10 -2 -10 4 0 5 -12 8
-27 5 -15 -3 -29 0 -34 8 -4 7 -11 10 -14 6 -11 -11 43 -64 97 -93 48 -27 62
-30 143 -30 76 0 99 4 146 26 55 26 119 83 119 107 0 6 4 12 8 12 14 0 46 110
36 120 -7 7 -15 -7 -23 -41z m-421 -134 c-10 -12 -10 -15 0 -15 8 0 11 -3 7
-6 -3 -3 -10 -3 -16 0 -12 8 -3 36 11 36 6 0 5 -6 -2 -15z"/>
<path d="M14257 12143 c-13 -12 -7 -19 16 -20 12 0 16 1 9 4 -6 3 -10 9 -6 14
6 10 -9 12 -19 2z"/>
<path d="M16013 12352 c-24 -2 -43 -7 -43 -12 0 -5 8 -7 18 -6 9 2 26 0 37 -5
17 -6 16 -8 -9 -8 -20 -1 -27 -5 -23 -15 3 -8 1 -17 -6 -20 -7 -3 -6 -5 3 -5
30 2 41 -1 35 -11 -3 -5 -1 -10 4 -10 17 0 13 18 -6 29 -17 10 -17 10 0 11 10
0 22 -11 26 -24 11 -27 40 -41 54 -27 7 7 15 7 23 0 33 -27 73 38 42 69 -8 8
-4 10 18 6 21 -4 26 -2 18 6 -13 13 -130 26 -191 22z m87 -92 c0 -5 -4 -10 -9
-10 -6 0 -13 5 -16 10 -3 6 1 10 9 10 9 0 16 -4 16 -10z"/>
<path d="M15745 12324 c-22 -7 -46 -14 -53 -14 -8 0 -29 -7 -48 -16 l-33 -16
32 -29 c17 -16 39 -29 47 -29 20 0 57 -26 49 -34 -3 -3 -23 3 -44 14 -21 11
-55 23 -74 26 -20 4 -40 12 -44 18 -6 7 -7 7 -5 -3 3 -9 156 -81 174 -81 1 0
5 12 9 27 9 39 46 117 58 124 5 4 2 11 -9 17 -14 7 -31 6 -59 -4z"/>
<path d="M15850 12280 c0 -5 5 -10 10 -10 6 0 10 5 10 10 0 6 -4 10 -10 10 -5
0 -10 -4 -10 -10z"/>
<path d="M16448 12268 c-2 -14 -1 -33 2 -44 4 -10 2 -22 -4 -26 -7 -5 -6 -8 4
-8 8 0 21 -9 27 -19 10 -16 20 -19 48 -14 22 3 46 1 60 -7 20 -11 41 -11 112
0 93 13 141 29 90 30 -16 0 -26 4 -23 9 7 10 2 13 -127 57 -54 18 -117 36
-141 39 -40 6 -44 5 -48 -17z m302 -78 c0 -5 -5 -10 -11 -10 -5 0 -7 5 -4 10
3 6 8 10 11 10 2 0 4 -4 4 -10z"/>
<path d="M15824 12239 c-8 -17 -13 -33 -10 -37 3 -3 6 -1 6 4 1 5 7 -4 15 -21
9 -20 14 -24 14 -12 1 9 5 17 10 17 13 0 20 25 14 48 -8 34 -31 34 -49 1z m29
-20 c4 -16 3 -18 -9 -8 -7 6 -11 15 -8 20 8 13 11 11 17 -12z"/>
<path d="M15950 12261 c0 -5 5 -13 10 -16 6 -3 10 -2 10 4 0 5 -4 13 -10 16
-5 3 -10 2 -10 -4z"/>
<path d="M15970 12221 c0 -6 4 -13 10 -16 6 -3 7 1 4 9 -7 18 -14 21 -14 7z"/>
<path d="M16155 12219 c-11 -17 1 -21 15 -4 8 9 8 15 2 15 -6 0 -14 -5 -17
-11z"/>
<path d="M15513 12176 c13 -32 153 -215 166 -215 11 -1 11 2 0 15 -11 14 -11
18 5 29 11 9 19 32 23 68 l6 54 -87 32 c-97 35 -121 38 -113 17z m187 -76 c0
-5 -2 -10 -4 -10 -3 0 -8 5 -11 10 -3 6 -1 10 4 10 6 0 11 -4 11 -10z"/>
<path d="M15794 12177 c-9 -24 6 -44 18 -22 7 11 6 21 -1 28 -7 7 -12 6 -17
-6z"/>
<path d="M16205 12171 c-11 -9 -29 -28 -40 -41 l-20 -25 20 15 c26 19 67 61
63 65 -2 2 -12 -4 -23 -14z"/>
<path d="M15287 12170 c-59 -11 -187 -80 -239 -131 -68 -65 -66 -90 11 -162
40 -37 68 -54 85 -54 15 0 28 3 31 7 2 4 15 6 28 5 27 -3 31 3 103 175 25 58
49 113 54 122 24 42 5 52 -73 38z m-114 -193 c10 -6 19 -25 20 -41 2 -23 -3
-30 -23 -36 -61 -17 -92 29 -48 70 26 24 29 24 51 7z m-3 -139 c0 -4 -4 -8
-10 -8 -5 0 -10 6 -10 14 0 8 -7 16 -15 20 -8 3 -15 11 -15 17 0 7 11 2 25
-11 14 -13 25 -27 25 -32z"/>
<path d="M16265 12159 c-11 -16 -1 -19 13 -3 7 8 8 14 3 14 -5 0 -13 -5 -16
-11z"/>
<path d="M15418 12138 c-32 -51 -97 -222 -104 -276 -3 -23 1 -37 16 -49 11
-10 20 -25 20 -34 0 -17 25 -43 44 -45 6 0 35 -2 65 -2 66 -2 64 -8 -8 -16
-62 -7 -74 -13 -67 -31 3 -9 -4 -15 -17 -17 -16 -3 18 -24 114 -71 74 -37 140
-67 145 -67 5 0 11 15 12 33 3 44 11 67 24 67 10 0 8 -35 -5 -88 -5 -18 1 -26
33 -42 47 -24 64 -25 56 -4 -3 8 -2 12 3 9 5 -3 12 -1 16 5 3 5 -1 10 -9 10
-9 0 -16 5 -16 10 0 6 6 10 13 9 27 -3 46 2 68 20 20 16 21 21 10 35 -11 13
-11 17 3 22 18 7 10 27 -30 79 -13 17 -32 40 -41 53 -10 13 -23 29 -28 35 -6
7 -21 29 -35 49 -14 21 -28 38 -33 38 -4 0 -12 11 -17 25 -12 31 -26 29 -58
-7 -26 -31 -58 -36 -88 -14 -19 14 -19 15 2 43 23 31 57 41 79 23 8 -6 19 -9
25 -5 9 5 -38 88 -60 105 -3 3 -21 26 -39 52 -27 41 -57 68 -74 68 -3 0 -11
-10 -19 -22z m302 -357 c15 -29 12 -33 -11 -21 -19 10 -20 10 -10 -9 17 -31 3
-51 -34 -51 -37 0 -49 17 -39 56 6 23 14 28 41 25 6 -1 14 3 18 9 10 16 23 12
35 -9z m-145 -51 c-3 -5 -18 -9 -33 -9 l-27 1 30 8 c17 4 31 8 33 9 2 0 0 -3
-3 -9z m35 0 c0 -5 -5 -10 -11 -10 -5 0 -7 5 -4 10 3 6 8 10 11 10 2 0 4 -4 4
-10z m146 -8 c15 -9 37 -52 27 -51 -11 0 -57 59 -46 59 4 0 13 -4 19 -8z m58
-77 c3 -8 1 -15 -4 -15 -6 0 -10 7 -10 15 0 8 2 15 4 15 2 0 6 -7 10 -15z"/>
<path d="M16295 12151 c-3 -5 -1 -12 5 -16 5 -3 10 1 10 9 0 18 -6 21 -15 7z"/>
<path d="M17080 12141 c0 -6 4 -13 10 -16 6 -3 7 1 4 9 -7 18 -14 21 -14 7z"/>
<path d="M15844 12125 c11 -8 22 -12 25 -9 6 6 -19 24 -34 24 -5 -1 -1 -7 9
-15z"/>
<path d="M16228 12116 c-19 -14 -25 -32 -8 -21 6 3 10 -4 10 -15 0 -15 -5 -20
-14 -17 -10 4 -13 1 -9 -9 4 -10 -2 -17 -16 -21 -11 -3 -21 -13 -21 -22 0 -14
2 -14 10 -1 8 12 10 11 10 -5 0 -12 -5 -26 -11 -32 -8 -8 -8 -13 0 -17 6 -4
11 -2 11 3 0 6 6 11 13 11 8 0 14 7 14 15 0 8 -4 15 -8 15 -17 0 5 32 28 41
13 5 22 13 19 18 -3 5 7 7 23 6 24 -2 29 1 28 16 -1 11 -7 19 -14 19 -7 0 -12
3 -12 8 4 21 -3 24 -17 6 -13 -16 -15 -16 -10 -1 6 20 -2 21 -26 3z"/>
<path d="M16430 12095 c0 -8 5 -15 10 -15 6 0 10 7 10 15 0 8 -4 15 -10 15 -5
0 -10 -7 -10 -15z"/>
<path d="M15756 12082 c-3 -9 -10 -58 -15 -107 -9 -87 -8 -91 17 -133 15 -24
31 -52 37 -63 5 -10 14 -19 19 -19 9 0 55 50 57 63 1 4 3 12 4 17 1 6 3 15 4
21 0 5 5 7 11 4 6 -3 7 1 4 10 -4 8 -17 18 -29 21 -28 7 -38 39 -22 65 10 16
9 21 -2 28 -8 5 -11 16 -6 30 4 13 2 21 -5 21 -6 0 -8 5 -5 11 4 6 13 8 21 5
8 -3 14 -1 14 3 0 7 -81 41 -96 41 -2 0 -5 -8 -8 -18z"/>
<path d="M16487 12080 c16 -18 139 -22 153 -5 9 10 4 12 -22 9 -51 -7 -91 -6
-118 2 -20 5 -23 4 -13 -6z"/>
<path d="M17116 11995 c25 -25 25 -49 0 -39 -7 3 -16 -2 -19 -10 -4 -11 -1
-13 11 -9 14 5 15 3 5 -7 -19 -20 -57 -24 -50 -5 4 8 2 17 -4 21 -19 11 -22
-5 -5 -30 19 -29 74 -43 105 -27 17 10 21 9 21 -4 0 -9 4 -14 9 -11 5 4 11 2
13 -4 5 -16 68 -31 68 -17 0 19 -58 85 -112 128 -56 44 -80 52 -42 14z"/>
<path d="M16260 11990 c-8 -5 -10 -10 -5 -10 6 -1 -3 -8 -19 -16 -29 -16 -26
-27 12 -39 13 -4 22 -2 22 4 0 6 -5 10 -11 9 -6 -2 -14 3 -16 10 -3 7 0 11 7
10 7 -2 16 7 21 20 10 25 9 25 -11 12z"/>
<path d="M15850 11919 c0 -5 5 -7 10 -4 6 3 10 8 10 11 0 2 -4 4 -10 4 -5 0
-10 -5 -10 -11z"/>
<path d="M16122 11906 c7 -8 16 -12 19 -10 3 2 25 -6 48 -18 23 -11 44 -18 47
-16 6 6 -98 58 -115 58 -9 0 -8 -4 1 -14z"/>
<path d="M16972 11905 c-11 -13 -10 -15 7 -15 14 0 19 5 15 15 -7 18 -6 18
-22 0z"/>
<path d="M14930 11870 c-25 -3 -60 -16 -77 -28 -34 -24 -133 -143 -133 -160 0
-18 61 -22 138 -7 257 49 282 68 195 145 -62 54 -69 57 -123 50z"/>
<path d="M16080 11835 c0 -8 4 -15 10 -15 5 0 7 7 4 15 -4 8 -8 15 -10 15 -2
0 -4 -7 -4 -15z"/>
<path d="M16987 11825 c3 -9 -2 -22 -13 -30 -14 -10 -16 -18 -9 -28 6 -8 28
-40 49 -71 41 -59 61 -60 45 -2 -5 17 -15 57 -24 89 -12 44 -20 57 -35 57 -13
0 -18 -5 -13 -15z"/>
<path d="M17082 11793 c13 -50 19 -58 29 -42 4 7 11 11 14 7 3 -3 -1 -13 -10
-22 -9 -9 -12 -16 -6 -16 6 0 8 -8 6 -17 -3 -10 0 -6 7 8 8 15 19 24 27 21 9
-3 11 0 6 8 -5 9 -4 11 4 6 6 -4 9 -11 6 -16 -3 -4 2 -10 10 -13 9 -4 12 -1 9
7 -3 8 0 17 7 22 8 4 10 3 5 -4 -4 -7 -2 -12 4 -12 6 0 15 11 22 25 6 13 15
22 21 18 5 -3 8 0 5 8 -5 15 -72 32 -105 26 -13 -2 -23 0 -23 5 0 5 -4 7 -9 3
-5 -3 -12 -1 -16 5 -15 24 -23 7 -13 -27z"/>
<path d="M15871 11803 c-16 -17 -11 -25 8 -14 7 5 12 13 10 19 -2 6 -10 4 -18
-5z"/>
<path d="M16745 11792 c-44 -9 -70 -18 -59 -20 12 -2 24 -13 28 -25 7 -27 3
-30 -34 -29 -17 0 -28 -4 -25 -9 4 -5 11 -9 17 -9 10 0 80 -30 236 -101 35
-16 66 -29 68 -29 12 0 -11 23 -40 41 -20 12 -25 19 -14 19 9 0 19 -4 22 -9 4
-5 17 -8 31 -7 13 2 26 -3 29 -10 3 -8 10 -14 15 -14 13 0 3 28 -19 56 -51 67
-146 164 -159 163 -9 -1 -52 -8 -96 -17z m40 -102 c3 -5 1 -10 -4 -10 -6 0
-11 5 -11 10 0 6 2 10 4 10 3 0 8 -4 11 -10z"/>
<path d="M17465 11760 c-3 -5 -1 -10 4 -10 6 0 11 5 11 10 0 6 -2 10 -4 10 -3
0 -8 -4 -11 -10z"/>
<path d="M17235 11750 c-3 -5 -1 -10 4 -10 6 0 11 5 11 10 0 6 -2 10 -4 10 -3
0 -8 -4 -11 -10z"/>
<path d="M15846 11718 c9 -18 23 -38 30 -46 12 -11 14 -11 14 2 0 9 -4 16 -9
16 -5 0 -14 14 -20 30 -5 17 -15 30 -21 30 -6 0 -4 -13 6 -32z"/>
<path d="M17132 11699 c2 -7 10 -15 17 -17 8 -3 12 1 9 9 -2 7 -10 15 -17 17
-8 3 -12 -1 -9 -9z"/>
<path d="M14875 11640 c-60 -10 -117 -21 -126 -24 -18 -8 -39 -48 -39 -75 0
-26 36 -144 67 -218 34 -83 53 -84 123 -5 29 31 64 74 78 96 l26 38 -33 30
c-20 18 -41 28 -55 26 -15 -2 -37 9 -59 29 -31 27 -47 53 -33 53 14 0 80 -35
131 -70 33 -22 63 -40 67 -40 3 0 26 32 51 71 44 70 44 72 26 90 -24 24 -72
23 -224 -1z"/>
<path d="M17439 11623 c0 -11 -3 -13 -6 -5 -7 17 -23 15 -23 -3 0 -8 -3 -15
-7 -16 -5 0 -17 -2 -28 -5 -11 -2 -33 -5 -49 -6 -27 -1 -28 -2 -11 -15 18 -12
18 -13 -1 -13 -21 0 -44 -18 -44 -34 0 -5 6 -1 14 9 13 19 14 18 13 -8 -1 -15
-6 -27 -12 -27 -5 0 -2 -6 9 -12 22 -13 196 -19 196 -7 0 5 7 9 15 9 24 0 17
32 -21 93 -19 31 -37 57 -40 57 -2 0 -4 -8 -5 -17z"/>
<path d="M15320 11606 c0 -9 -6 -15 -12 -13 -8 1 -12 -6 -10 -17 2 -11 -1 -15
-7 -11 -16 9 -14 -10 14 -147 38 -186 61 -263 76 -263 8 0 17 -4 21 -10 9 -13
33 20 49 68 7 20 16 37 21 37 10 0 10 -13 -1 -42 -4 -13 -11 -42 -15 -65 -5
-35 -4 -41 9 -37 11 5 13 2 9 -10 -5 -13 1 -16 29 -16 35 0 174 52 192 72 7 8
6 9 -2 4 -7 -4 -13 -2 -13 3 0 6 8 11 18 12 11 1 9 4 -8 9 -18 6 -20 8 -7 9
11 1 15 6 11 12 -3 6 -1 15 6 19 7 4 14 30 16 56 3 59 6 73 21 99 10 17 14 18
40 7 l28 -13 -24 20 c-28 22 -404 215 -438 226 -17 5 -23 2 -23 -9z m255 -169
c14 -11 16 -21 11 -51 -6 -30 -12 -38 -37 -43 -16 -3 -32 -10 -35 -14 -6 -11
-32 13 -34 32 -5 29 1 46 20 67 24 25 48 28 75 9z m130 -106 c3 -5 1 -12 -5
-16 -5 -3 -10 1 -10 9 0 18 6 21 15 7z"/>
<path d="M15100 11516 c-30 -36 -70 -83 -87 -103 -69 -81 -126 -172 -116 -185
6 -7 9 -21 8 -30 -2 -10 1 -18 6 -18 6 0 7 -5 4 -10 -4 -6 -3 -9 2 -8 4 1 18
-3 30 -10 42 -23 336 -102 320 -86 -4 4 -1 14 6 22 9 12 9 16 0 19 -7 3 -13 9
-13 15 0 7 5 7 13 1 6 -5 19 -9 27 -8 22 1 17 57 -15 200 -40 180 -65 248 -92
252 -13 1 -23 -3 -24 -10 0 -6 -4 -4 -7 6 -6 15 -17 7 -62 -47z m88 -161 c26
-6 31 -49 8 -81 -14 -19 -15 -19 -53 3 -25 15 -40 31 -44 50 -5 26 -3 28 30
30 20 2 46 1 59 -2z"/>
<path d="M14587 11437 c-26 -56 -47 -107 -47 -113 0 -16 41 -31 73 -27 26 3
27 2 27 -37 l0 -40 -50 26 c-27 14 -50 32 -50 40 0 25 -18 15 -24 -13 -9 -45
2 -364 15 -416 l11 -49 37 7 c20 4 39 10 42 13 4 4 36 66 73 138 l66 132 -19
46 c-11 25 -27 46 -34 46 -8 0 -20 7 -28 16 -11 14 -7 15 37 12 48 -3 49 -2
52 26 2 16 -4 48 -14 70 -84 195 -96 219 -110 222 -5 2 -30 -43 -57 -99z m31
-404 c-3 -31 -34 -44 -44 -19 -9 24 3 46 26 46 17 0 21 -5 18 -27z"/>
<path d="M17300 11420 c8 -5 15 -15 15 -22 1 -7 5 -12 11 -11 5 1 16 -7 23
-19 7 -11 8 -17 2 -13 -15 9 -13 -6 4 -29 7 -10 20 -16 27 -13 10 4 10 6 1 6
-7 1 -13 6 -13 13 0 6 8 4 19 -6 16 -15 19 -15 24 -1 4 8 12 15 19 15 9 0 9
-3 0 -12 -17 -17 -15 -29 3 -22 11 5 13 2 9 -10 -7 -18 -24 -22 -24 -6 0 6 -7
10 -17 10 -14 0 -14 -2 3 -21 l19 -21 22 27 c13 14 20 31 17 37 -4 6 -2 8 4 4
13 -8 42 32 42 59 0 16 -2 17 -10 5 -9 -13 -10 -13 -10 1 0 11 -16 19 -51 27
-62 15 -161 16 -139 2z m95 -60 c-3 -5 -12 -10 -18 -10 -7 0 -6 4 3 10 19 12
23 12 15 0z"/>
<path d="M16648 11403 c7 -3 16 -2 19 1 4 3 -2 6 -13 5 -11 0 -14 -3 -6 -6z"/>
<path d="M16608 11393 c7 -3 16 -2 19 1 4 3 -2 6 -13 5 -11 0 -14 -3 -6 -6z"/>
<path d="M16618 11329 c-15 -9 49 -42 68 -35 8 3 14 15 14 26 0 17 -6 20 -35
18 -20 -1 -41 -5 -47 -9z m62 -15 c0 -7 -8 -10 -20 -7 -22 6 -19 20 5 20 8 0
15 -6 15 -13z"/>
<path d="M17565 11319 c4 -17 3 -20 -3 -10 -5 7 -15 10 -21 7 -16 -10 -14 -26
3 -26 16 0 21 -13 32 -72 4 -25 2 -38 -5 -38 -6 0 -11 -5 -11 -12 0 -6 3 -8 7
-5 3 4 12 2 20 -5 10 -8 12 -8 8 3 -3 8 -6 50 -8 93 -2 55 -6 81 -16 84 -10 3
-11 -2 -6 -19z"/>
<path d="M16790 11275 c0 -12 5 -26 11 -32 7 -7 3 -12 -15 -17 -14 -3 -26 -11
-26 -17 0 -8 5 -7 15 1 12 10 15 9 15 -6 0 -11 -12 -27 -25 -37 -14 -10 -25
-13 -25 -7 0 5 -4 10 -9 10 -5 0 -7 -9 -4 -20 3 -11 1 -20 -5 -20 -5 0 -12 -9
-15 -20 -3 -11 -11 -19 -19 -17 -7 2 -10 2 -5 0 4 -3 7 -11 7 -19 0 -9 -5 -12
-12 -8 -8 5 -9 2 -5 -9 4 -11 -1 -22 -13 -29 -24 -15 -25 -24 -4 -32 10 -4 13
-2 8 7 -3 6 4 0 17 -15 13 -14 38 -29 54 -32 26 -5 33 -2 51 26 36 55 184 299
184 304 0 2 -9 -1 -20 -8 -15 -10 -23 -10 -28 -2 -4 6 -29 12 -57 12 -34 0
-44 -2 -30 -8 l20 -7 -20 -5 c-11 -2 -25 3 -32 12 -11 13 -12 12 -13 -5z m105
-34 c-8 -14 -25 -14 -25 0 0 5 5 7 10 4 6 -3 10 -1 10 6 0 7 3 10 6 6 3 -3 3
-10 -1 -16z m-45 -11 c0 -5 -2 -10 -4 -10 -3 0 -8 5 -11 10 -3 6 -1 10 4 10 6
0 11 -4 11 -10z"/>
<path d="M17039 11271 c-9 -9 -48 -61 -87 -116 -39 -55 -84 -118 -100 -140
-46 -63 -47 -66 -20 -61 12 3 39 8 59 10 91 13 266 60 289 79 l25 20 -48 -6
-48 -5 21 23 c12 13 29 21 36 18 9 -3 14 0 12 7 -2 7 3 15 10 17 7 3 10 -1 6
-10 -3 -8 -1 -18 5 -22 7 -4 11 4 11 19 0 14 5 28 10 31 6 4 10 -6 10 -22 0
-20 3 -24 9 -14 5 8 7 20 5 28 -15 48 -14 47 -29 27 -14 -18 -14 -18 -15 3 0
12 5 23 12 25 8 3 5 12 -9 27 l-20 22 4 -26 c8 -37 -10 -30 -29 13 -10 21 -17
29 -17 19 -1 -15 -4 -16 -23 -5 -13 6 -31 12 -40 13 -25 2 -35 15 -19 24 7 5
9 11 5 13 -5 3 -16 -2 -25 -11z"/>
<path d="M17506 11265 c-9 -26 -7 -32 5 -12 6 10 9 21 6 23 -2 3 -7 -2 -11
-11z"/>
<path d="M17533 11246 c2 -40 17 -50 17 -11 0 14 0 28 1 32 0 4 -4 9 -10 11
-5 2 -9 -12 -8 -32z"/>
<path d="M16760 11249 c0 -5 5 -7 10 -4 6 3 10 8 10 11 0 2 -4 4 -10 4 -5 0
-10 -5 -10 -11z"/>
<path d="M17370 11254 c0 -10 31 -36 37 -31 3 3 -2 13 -10 22 -16 15 -27 19
-27 9z"/>
<path d="M17260 11221 c0 -5 5 -13 10 -16 6 -3 10 -2 10 4 0 5 -4 13 -10 16
-5 3 -10 2 -10 -4z"/>
<path d="M17286 11177 c3 -10 9 -15 12 -12 3 3 0 11 -7 18 -10 9 -11 8 -5 -6z"/>
<path d="M17439 11137 c-5 -13 -6 -37 -1 -37 9 1 42 26 42 31 0 5 -39 10 -41
6z"/>
<path d="M17480 11108 c-8 -13 -13 -27 -12 -32 2 -5 -4 -4 -12 3 -12 10 -14 9
-9 -8 4 -18 8 -19 27 -9 11 6 23 9 25 7 2 -2 5 11 5 29 1 38 -4 40 -24 10z"/>
<path d="M14887 11100 c-10 -14 -30 -24 -56 -27 -38 -5 -43 -10 -75 -67 -19
-33 -50 -88 -70 -120 -20 -33 -36 -62 -36 -65 1 -3 11 -18 23 -33 l23 -28 79
25 c44 13 105 30 135 38 53 14 55 15 60 53 l5 39 21 -23 20 -22 87 29 c48 16
100 38 117 47 31 19 48 51 33 63 -22 18 -193 75 -288 95 -16 4 -37 9 -47 12
-9 3 -22 -4 -31 -16z"/>
<path d="M17517 11106 c-6 -15 1 -26 15 -26 11 0 10 27 -1 34 -5 3 -11 0 -14
-8z"/>
<path d="M15593 11048 c-51 -17 -93 -36 -93 -40 0 -5 4 -6 10 -3 5 3 8 0 5 -7
-5 -13 36 -36 152 -83 47 -19 82 -25 145 -26 126 -2 155 0 139 10 -8 5 -21 7
-28 4 -10 -4 -13 0 -11 13 2 13 -4 20 -19 22 -13 2 -23 10 -23 18 0 8 -7 14
-15 14 -9 0 -19 9 -23 21 -8 21 -9 21 -25 -5 -11 -15 -23 -23 -32 -20 -19 8
-19 39 -1 56 11 11 8 15 -23 24 -20 6 -35 16 -33 22 3 19 -26 14 -125 -20z"/>
<path d="M16612 11041 c-11 -7 -11 -9 0 -14 9 -3 15 1 15 9 0 8 -1 14 -1 14
-1 0 -7 -4 -14 -9z"/>
<path d="M17510 11031 c-8 -5 -27 -14 -41 -21 -55 -25 -71 -112 -23 -124 28
-7 51 14 79 72 12 25 14 37 5 47 -7 8 -7 15 -1 19 5 3 12 0 14 -6 3 -8 6 -6 6
5 1 18 -14 21 -39 8z"/>
<path d="M16520 10985 c0 -9 4 -13 10 -10 6 3 7 -1 4 -10 -4 -8 -2 -21 4 -28
18 -22 52 -87 52 -100 0 -8 -4 -7 -10 3 -5 8 -10 11 -10 7 0 -22 -40 34 -49
71 -7 23 -17 42 -24 42 -23 0 -72 -40 -78 -62 l-6 -23 -11 25 c-9 22 -11 22
-12 5 0 -16 -2 -17 -10 -5 -5 8 -12 12 -15 8 -10 -10 86 -189 121 -225 53 -56
77 -46 150 67 23 36 54 80 68 99 26 35 36 65 14 43 -9 -9 -14 -7 -24 6 -12 15
-15 15 -24 2 -8 -12 -10 -12 -10 5 0 14 -17 31 -52 52 -73 44 -88 49 -88 28z
m114 -68 c17 -12 16 -13 -11 -13 -18 0 -30 5 -30 13 0 7 5 13 12 13 6 0 19 -6
29 -13z m6 -39 c0 -4 -7 -8 -15 -8 -8 0 -15 4 -15 8 0 5 7 9 15 9 8 0 15 -4
15 -9z"/>
<path d="M17134 10972 c-10 -2 -66 -17 -123 -33 -57 -16 -117 -29 -132 -29
-16 0 -29 -5 -29 -11 0 -8 -4 -8 -12 -1 -8 6 -22 6 -36 1 -23 -9 -23 -10 25
-60 26 -28 56 -66 66 -85 12 -23 25 -34 40 -34 222 -3 336 7 374 31 22 13 45
77 31 85 -6 4 -5 11 1 17 15 15 14 27 -4 27 -8 0 -15 5 -15 10 0 6 -9 10 -20
10 -11 0 -20 5 -20 10 0 41 -116 -20 -185 -97 -39 -43 -42 -45 -58 -29 -28 28
-21 62 18 92 20 15 39 23 43 19 4 -4 2 -10 -5 -12 -18 -7 -57 -43 -51 -48 7
-7 88 53 88 65 0 6 9 10 20 10 11 0 20 5 20 10 0 6 6 10 13 10 14 0 47 31 47
43 0 6 -55 6 -96 -1z"/>
<path d="M15490 10918 c0 -17 189 -264 264 -345 30 -33 76 -45 76 -20 0 9 2 9
9 -1 6 -10 10 -10 21 3 8 10 9 15 1 15 -6 0 -11 8 -11 18 0 12 3 14 8 4 9 -14
20 5 42 72 11 34 10 41 -4 51 -18 14 -21 26 -5 23 6 -2 14 3 16 10 3 7 -4 12
-16 12 -25 0 -28 17 -3 23 16 4 16 5 -1 6 -10 0 -15 6 -12 11 4 6 -6 10 -24
10 -16 0 -33 -4 -36 -10 -11 -17 -31 -11 -76 23 -45 34 -203 107 -233 107 -9
0 -16 -5 -16 -12z m405 -228 c3 -5 1 -10 -4 -10 -6 0 -11 5 -11 10 0 6 2 10 4
10 3 0 8 -4 11 -10z"/>
<path d="M16300 10877 c0 -10 -17 -14 -57 -15 -32 0 -61 -1 -66 -1 -4 -1 -15
-14 -26 -31 -10 -16 -21 -27 -24 -23 -4 3 -7 -10 -7 -29 0 -35 1 -36 123 -101
131 -71 164 -82 186 -68 12 8 13 16 4 46 -11 36 -120 235 -129 235 -2 0 -4 -6
-4 -13z"/>
<path d="M16671 10716 c-54 -99 -59 -116 -37 -116 22 0 80 23 94 37 7 7 26 13
42 13 15 0 38 8 51 19 l23 19 -18 40 c-22 48 -41 67 -78 76 -25 6 -29 1 -77
-88z"/>
<path d="M16022 10703 c-23 -3 -32 -9 -28 -18 2 -7 -2 -19 -10 -26 -8 -7 -14
-8 -13 -3 9 51 -20 4 -45 -74 -14 -41 -15 -54 -5 -71 27 -42 47 -44 205 -22
82 11 173 23 201 27 29 4 50 10 47 15 -3 5 2 6 10 3 10 -4 16 -1 16 8 0 17
-78 65 -193 117 -91 42 -130 51 -185 44z m26 -30 c-9 -10 -14 -23 -12 -28 3
-6 -5 -11 -16 -12 -17 -1 -18 1 -10 17 14 26 41 52 48 46 3 -3 -2 -14 -10 -23z
m-58 -53 c0 -5 -4 -10 -10 -10 -5 0 -10 5 -10 10 0 6 5 10 10 10 6 0 10 -4 10
-10z"/>
<path d="M16795 10626 c-22 -13 -56 -26 -76 -30 -52 -9 -87 -39 -82 -69 3 -17
25 -33 82 -63 43 -22 83 -38 89 -36 15 5 49 114 53 172 5 55 -9 60 -66 26z"/>
<path d="M16150 10454 c-91 -14 -171 -27 -177 -29 -30 -10 -9 -32 45 -49 31
-10 84 -33 117 -51 44 -24 91 -38 175 -53 209 -38 200 -38 273 -1 65 32 197
124 197 137 0 4 -22 14 -48 23 -26 9 -64 24 -86 34 -33 14 -38 14 -33 1 4 -10
-2 -17 -16 -22 -12 -4 -30 -16 -39 -27 -16 -17 -19 -36 -18 -118 0 -15 -6 -32
-14 -38 -11 -9 -15 -5 -21 21 -4 18 -8 52 -10 76 -2 30 -9 48 -22 57 -11 8
-23 12 -26 9 -3 -3 -8 8 -12 25 -6 30 -8 31 -63 30 -31 0 -131 -12 -222 -25z
m110 -53 c0 -12 -20 -25 -27 -18 -7 7 6 27 18 27 5 0 9 -4 9 -9z"/>
<path d="M15912 10333 c-12 -8 -36 -18 -54 -22 l-32 -7 -22 -139 c-13 -77 -32
-192 -43 -255 -30 -176 -30 -230 -3 -230 12 0 26 20 46 65 15 35 57 115 92
176 56 98 98 154 233 309 38 43 34 47 -77 89 -94 35 -108 36 -140 14z m36
-206 c-2 -25 -8 -33 -27 -35 -15 -3 -30 3 -38 14 -17 24 -17 30 7 54 30 30 62
11 58 -33z"/>
<path d="M14090 9749 c0 -22 4 -38 8 -35 8 5 4 76 -4 76 -2 0 -4 -18 -4 -41z"/>
<path d="M10260 10720 c-36 -36 -43 -68 -23 -109 21 -42 54 -57 106 -47 68 13
89 96 38 147 -36 36 -90 40 -121 9z"/>
<path d="M11438 10334 c-57 -30 -65 -98 -19 -145 44 -44 107 -35 136 20 28 55
18 104 -26 126 -35 19 -56 18 -91 -1z"/>
<path d="M15392 10661 c4 -13 18 -16 19 -4 0 4 -5 9 -11 12 -7 2 -11 -2 -8 -8z"/>
<path d="M13376 10405 c-15 -41 43 -95 102 -95 34 0 46 25 26 55 -31 47 -115
74 -128 40z"/>
<path d="M14693 10400 c-32 -19 -51 -59 -38 -79 7 -12 94 -15 111 -3 13 9 44
54 44 64 0 16 -33 38 -58 38 -15 0 -42 -9 -59 -20z"/>
<path d="M14478 10163 c7 -3 16 -2 19 1 4 3 -2 6 -13 5 -11 0 -14 -3 -6 -6z"/>
<path d="M14701 10149 c-15 -12 -31 -17 -44 -13 -12 4 -17 2 -13 -4 7 -12 122
-9 134 3 8 7 -26 35 -42 35 -6 -1 -22 -10 -35 -21z m49 1 c0 -5 -8 -10 -17
-10 -15 0 -16 2 -3 10 19 12 20 12 20 0z"/>
<path d="M14558 10133 c6 -2 18 -2 25 0 6 3 1 5 -13 5 -14 0 -19 -2 -12 -5z"/>
<path d="M17457 10348 c-46 -36 -38 -117 14 -143 40 -21 57 -19 90 14 36 36
40 90 9 121 -23 23 -87 27 -113 8z"/>
<path d="M9548 10244 c-58 -31 -67 -106 -17 -148 53 -45 126 -29 146 31 13 37
4 67 -30 103 -32 33 -58 37 -99 14z"/>
<path d="M9651 10059 c-13 -10 -18 -19 -11 -19 12 0 45 29 39 35 -2 2 -15 -5
-28 -16z"/>
<path d="M9570 10046 c0 -2 11 -6 25 -8 13 -3 22 -1 19 3 -5 9 -44 13 -44 5z"/>
<path d="M10100 9907 c-30 -15 -50 -52 -50 -94 0 -23 8 -38 31 -57 51 -44 111
-29 144 35 14 27 14 33 -1 65 -11 23 -30 42 -50 50 -40 17 -43 17 -74 1z"/>
<path d="M16725 9111 c-67 -29 -81 -114 -26 -163 36 -32 70 -35 112 -11 52 31
56 120 7 160 -20 17 -69 24 -93 14z"/>
<path d="M16622 9010 c0 -14 2 -19 5 -12 2 6 2 18 0 25 -3 6 -5 1 -5 -13z"/>
<path d="M16630 8970 c0 -5 5 -10 10 -10 6 0 10 5 10 10 0 6 -4 10 -10 10 -5
0 -10 -4 -10 -10z"/>
<path d="M17185 8698 c4 -16 1 -31 -9 -40 -8 -9 -12 -18 -9 -22 12 -12 21 -6
33 24 10 25 10 32 -4 46 -16 15 -17 15 -11 -8z"/>
<path d="M17076 8668 c10 -33 30 -48 61 -47 21 1 23 3 8 6 -26 7 -55 33 -55
50 0 7 -5 13 -11 13 -6 0 -8 -9 -3 -22z"/>
<path d="M15434 9250 c-28 -11 -54 -53 -54 -90 0 -74 105 -110 150 -52 17 21
21 36 17 66 -3 21 -12 45 -19 52 -20 20 -70 33 -94 24z"/>
<path d="M15145 7750 c-3 -5 -1 -10 4 -10 6 0 11 5 11 10 0 6 -2 10 -4 10 -3
0 -8 -4 -11 -10z"/>
<path d="M10699 9133 c-13 -16 -12 -17 4 -4 9 7 17 15 17 17 0 8 -8 3 -21 -13z"/>
<path d="M10636 9058 c3 -5 10 -6 15 -3 13 9 11 12 -6 12 -8 0 -12 -4 -9 -9z"/>
<path d="M10601 9036 c-7 -8 -8 -17 -3 -20 6 -3 15 1 21 8 7 8 8 17 3 20 -6 3
-15 -1 -21 -8z"/>
<path d="M10515 8959 c-4 -6 -5 -12 -2 -15 2 -3 7 2 10 11 7 17 1 20 -8 4z"/>
<path d="M10278 8903 c6 -2 18 -2 25 0 6 3 1 5 -13 5 -14 0 -19 -2 -12 -5z"/>
<path d="M15745 6730 c-3 -5 -1 -10 4 -10 6 0 11 5 11 10 0 6 -2 10 -4 10 -3
0 -8 -4 -11 -10z"/>
<path d="M15766 6711 c-4 -5 3 -7 14 -4 23 6 26 13 6 13 -8 0 -17 -4 -20 -9z"/>
<path d="M15900 6603 c0 -11 50 -57 55 -51 3 3 -8 17 -25 31 -16 15 -30 24
-30 20z"/>
<path d="M15980 6510 c-13 -8 -13 -11 -1 -22 8 -8 11 -8 7 -1 -3 6 0 13 6 16
7 2 11 7 8 10 -3 3 -12 2 -20 -3z"/>
<path d="M16294 6188 c-4 -7 -3 -8 5 -4 15 10 43 -13 37 -30 -3 -8 0 -11 8 -8
15 6 40 -21 33 -34 -3 -4 -2 -14 3 -22 8 -13 12 -12 24 5 13 18 13 21 -1 28
-8 5 -30 24 -50 43 -37 37 -48 41 -59 22z"/>
<path d="M15935 6120 c-3 -5 -1 -10 4 -10 6 0 11 5 11 10 0 6 -2 10 -4 10 -3
0 -8 -4 -11 -10z"/>
<path d="M15960 6091 c0 -5 5 -13 10 -16 6 -3 10 -2 10 4 0 5 -4 13 -10 16 -5
3 -10 2 -10 -4z"/>
<path d="M16408 6082 c-6 -22 16 -44 35 -36 8 3 17 -2 20 -10 4 -11 1 -13 -11
-9 -15 5 -15 4 1 -13 14 -15 19 -16 26 -5 7 11 11 10 19 -5 6 -10 13 -16 17
-13 7 7 -83 109 -95 109 -4 0 -10 -8 -12 -18z"/>
<path d="M16733 5765 c0 -8 6 -15 13 -15 7 0 15 -6 17 -12 3 -8 6 -8 6 -2 1 6
-7 18 -17 27 -16 15 -19 15 -19 2z"/>
<path d="M9366 7415 c4 -8 8 -15 10 -15 2 0 4 7 4 15 0 8 -4 15 -10 15 -5 0
-7 -7 -4 -15z"/>
<path d="M11743 6893 c-17 -6 -17 -20 0 -20 8 0 14 6 14 14 0 7 -1 13 -1 12
-1 0 -7 -3 -13 -6z"/>
<path d="M11708 6841 c-11 -13 -13 -21 -5 -24 7 -2 5 -11 -6 -27 -10 -15 -17
-19 -17 -10 0 11 -3 11 -12 2 -10 -10 -10 -14 0 -21 18 -11 5 -59 -19 -72 -11
-5 -19 -15 -19 -22 0 -7 4 -6 10 3 16 25 12 -7 -5 -40 -23 -45 -12 -36 22 18
46 72 55 92 50 113 -3 10 0 17 7 16 6 -1 11 8 10 20 0 12 3 20 7 18 7 -5 19
18 19 36 0 16 -25 10 -42 -10z"/>
<path d="M11650 6736 c0 -9 -4 -16 -10 -16 -5 0 -10 -4 -10 -10 0 -16 14 -11
27 10 8 12 9 21 3 25 -6 3 -10 -1 -10 -9z"/>
<path d="M11596 6653 c-6 -14 -5 -15 5 -6 7 7 10 15 7 18 -3 3 -9 -2 -12 -12z"/>
<path d="M13366 8568 c3 -5 10 -6 15 -3 13 9 11 12 -6 12 -8 0 -12 -4 -9 -9z"/>
<path d="M17820 6350 c-43 -43 -38 -110 13 -140 41 -26 49 -25 86 6 25 21 31
33 31 65 0 74 -81 118 -130 69z"/>
<path d="M16261 7964 c-38 -48 -20 -116 34 -134 86 -28 156 78 92 138 -35 33
-99 30 -126 -4z"/>
<path d="M17015 7070 c3 -5 10 -10 16 -10 5 0 9 5 9 10 0 6 -7 10 -16 10 -8 0
-12 -4 -9 -10z"/>
<path d="M9909 6653 c-21 -58 -21 -58 -9 -47 11 11 32 74 24 74 -2 0 -9 -12
-15 -27z"/>
<path d="M9775 6620 c-3 -5 1 -10 10 -10 9 0 13 5 10 10 -3 6 -8 10 -10 10 -2
0 -7 -4 -10 -10z"/>
<path d="M11177 6600 c-3 -11 -1 -20 4 -20 5 0 9 2 9 4 0 2 3 11 6 20 3 9 2
16 -4 16 -5 0 -12 -9 -15 -20z"/>
<path d="M9880 6580 c0 -5 5 -10 10 -10 6 0 10 5 10 10 0 6 -4 10 -10 10 -5 0
-10 -4 -10 -10z"/>
<path d="M9741 6514 c0 -11 3 -14 6 -6 3 7 2 16 -1 19 -3 4 -6 -2 -5 -13z"/>
<path d="M9666 6485 c-2 -6 17 -10 48 -9 28 1 57 -3 64 -9 8 -7 12 -5 12 7 0
9 -3 16 -7 17 -61 4 -114 2 -117 -6z"/>
<path d="M11043 6471 c-12 -10 -20 -21 -16 -24 3 -4 -6 -12 -21 -18 -14 -7
-26 -16 -26 -21 0 -12 10 -10 46 13 21 12 31 25 27 35 -3 7 -1 14 5 14 6 0 12
-6 14 -12 3 -7 7 -2 10 10 7 27 -9 28 -39 3z"/>
<path d="M9779 6443 c-1 -5 -1 -11 0 -15 2 -11 -13 -10 -26 3 -7 7 -12 5 -15
-8 -4 -14 1 -18 24 -17 41 2 42 3 29 17 -6 8 -8 17 -4 20 3 4 3 7 0 7 -4 0 -8
-3 -8 -7z"/>
<path d="M9528 6423 c-10 -2 -18 -8 -18 -13 0 -4 9 -6 20 -3 11 3 20 9 20 14
0 5 -1 8 -2 8 -2 -1 -11 -3 -20 -6z"/>
<path d="M9073 5708 c2 -7 -3 -19 -12 -26 -12 -10 -13 -15 -3 -18 14 -7 16
-34 2 -34 -5 0 -10 5 -10 10 0 23 -17 7 -27 -25 -6 -19 -7 -33 -2 -29 5 3 9
-2 9 -10 0 -9 5 -16 10 -16 14 0 13 23 -2 38 -9 9 -9 12 0 12 7 0 12 -4 12
-10 0 -22 16 -7 35 33 16 32 18 47 10 65 -10 23 -30 32 -22 10z m17 -38 c0
-17 -2 -19 -14 -8 -10 9 -11 15 -2 20 16 11 16 10 16 -12z"/>
<path d="M9006 5555 c4 -8 8 -15 10 -15 2 0 4 7 4 15 0 8 -4 15 -10 15 -5 0
-7 -7 -4 -15z"/>
<path d="M8990 5495 c0 -8 4 -15 9 -15 5 0 11 7 15 15 3 9 0 15 -9 15 -8 0
-15 -7 -15 -15z"/>
<path d="M12500 6436 c0 -20 -5 -36 -11 -36 -7 0 -9 -10 -5 -25 4 -17 2 -25
-6 -25 -10 0 -10 -2 -1 -8 8 -5 9 -13 3 -22 -8 -12 -10 -11 -11 5 -1 11 -2 25
-4 30 -1 6 -3 15 -4 20 -2 6 -7 -3 -11 -18 -5 -17 -5 -39 0 -53 6 -15 6 -24 0
-24 -5 0 -9 -125 -10 -302 0 -166 -3 -440 -6 -610 l-6 -308 203 2 204 3 -3
530 c-3 581 -7 722 -24 742 -8 10 -7 13 3 13 11 0 11 2 -1 10 -13 9 -13 10 0
10 12 0 13 2 1 9 -7 5 -11 13 -7 19 3 6 -2 8 -13 5 -19 -5 -36 21 -25 38 5 8
-28 14 -51 9 -24 -5 -41 -9 -47 -9 -4 -1 -5 -7 -2 -15 3 -8 -4 -16 -18 -20
-32 -8 -38 -8 -38 4 0 6 7 10 15 10 8 0 15 7 15 16 0 14 -2 15 -17 3 -11 -10
-14 -10 -9 -1 4 6 2 12 -3 12 -10 0 -15 -14 -12 -32 0 -4 -6 -5 -15 -1 -11 4
-12 8 -4 13 7 5 1 9 -17 12 -25 3 -29 0 -31 -21 -3 -39 -12 -38 -12 2 0 20 -4
39 -10 42 -6 4 -10 -8 -10 -29z m253 -16 c3 -11 0 -23 -5 -27 -7 -3 -8 -1 -4
5 5 8 0 12 -13 12 -12 0 -21 4 -21 10 0 5 7 6 17 3 11 -4 14 -3 9 5 -4 7 -3
12 2 12 5 0 12 -9 15 -20z m-58 0 c3 -5 1 -10 -4 -10 -6 0 -11 5 -11 10 0 6 2
10 4 10 3 0 8 -4 11 -10z m32 -26 c-3 -3 -12 -4 -19 -1 -8 3 -5 6 6 6 11 1 17
-2 13 -5z m-237 -101 c0 -5 -5 -15 -10 -23 -8 -12 -10 -11 -10 8 0 12 5 22 10
22 6 0 10 -3 10 -7z"/>
<path d="M12668 6463 c7 -3 16 -2 19 1 4 3 -2 6 -13 5 -11 0 -14 -3 -6 -6z"/>
<path d="M12781 6424 c0 -11 3 -14 6 -6 3 7 2 16 -1 19 -3 4 -6 -2 -5 -13z"/>
<path d="M12450 6420 c0 -5 5 -10 11 -10 5 0 7 5 4 10 -3 6 -8 10 -11 10 -2 0
-4 -4 -4 -10z"/>
<path d="M12860 5106 c0 -2 7 -7 16 -10 8 -3 12 -2 9 4 -6 10 -25 14 -25 6z"/>
<path d="M8131 5754 c0 -11 3 -14 6 -6 3 7 2 16 -1 19 -3 4 -6 -2 -5 -13z"/>
<path d="M8129 5703 c-3 -10 -1 -40 2 -68 6 -49 6 -49 7 18 2 65 -2 85 -9 50z"/>
<path d="M8200 5406 c0 -2 7 -9 15 -16 13 -11 14 -10 9 4 -5 14 -24 23 -24 12z"/>
<path d="M11835 5390 c-3 -5 1 -10 10 -10 9 0 13 5 10 10 -3 6 -8 10 -10 10
-2 0 -7 -4 -10 -10z"/>
<path d="M17154 6010 c-59 -23 -70 -95 -24 -142 27 -26 36 -30 68 -25 89 15
113 124 35 165 -25 14 -49 14 -79 2z"/>
<path d="M17260 5855 c-11 -13 -10 -14 4 -9 9 3 16 10 16 15 0 13 -6 11 -20
-6z"/>
<path d="M17191 5684 c0 -11 3 -14 6 -6 3 7 2 16 -1 19 -3 4 -6 -2 -5 -13z"/>
<path d="M17191 5604 c0 -11 3 -14 6 -6 3 7 2 16 -1 19 -3 4 -6 -2 -5 -13z"/>
<path d="M16125 5920 c3 -5 8 -10 11 -10 2 0 4 5 4 10 0 6 -5 10 -11 10 -5 0
-7 -4 -4 -10z"/>
<path d="M16295 5770 c-3 -6 1 -7 9 -4 18 7 21 14 7 14 -6 0 -13 -4 -16 -10z"/>
<path d="M16397 5679 c7 -7 15 -10 18 -7 3 3 -2 9 -12 12 -14 6 -15 5 -6 -5z"/>
<path d="M11231 5672 c0 -7 -5 -10 -11 -7 -5 3 -10 2 -10 -4 0 -5 5 -13 10
-16 6 -3 10 -14 10 -23 0 -9 11 -30 25 -46 13 -16 22 -33 19 -38 -3 -5 4 -19
16 -30 14 -13 18 -24 12 -30 -12 -12 31 -124 46 -121 7 2 11 -7 9 -19 -1 -12
4 -23 11 -24 25 -3 27 -5 13 -13 -7 -5 -10 -14 -7 -20 4 -6 11 -9 15 -7 4 3 8
-8 8 -24 0 -16 6 -36 13 -45 8 -9 15 -26 15 -38 1 -11 7 -23 12 -24 6 -2 8
-14 5 -25 -4 -17 -2 -20 11 -15 11 4 14 2 10 -8 -3 -8 2 -18 11 -21 9 -3 16
-10 16 -16 0 -5 -4 -6 -10 -3 -12 7 -13 -5 -2 -23 12 -19 45 -4 36 17 -3 9 -9
26 -11 39 -3 12 -9 22 -14 22 -5 0 -9 7 -9 15 0 8 -10 31 -21 52 -12 21 -32
65 -45 98 -40 107 -74 176 -83 171 -4 -3 -6 5 -4 18 3 12 -1 29 -9 37 -7 8
-14 21 -16 29 -2 8 -8 18 -14 21 -5 3 -9 8 -7 10 6 11 -14 48 -23 43 -7 -5 -9
-1 -5 9 3 10 2 17 -3 17 -5 0 -11 12 -13 28 -2 15 -5 21 -6 14z m119 -293 c0
-6 -4 -7 -10 -4 -5 3 -10 11 -10 16 0 6 5 7 10 4 6 -3 10 -11 10 -16z"/>
<path d="M11880 5010 c8 -5 20 -10 25 -10 6 0 3 5 -5 10 -8 5 -19 10 -25 10
-5 0 -3 -5 5 -10z"/>
<path d="M13123 3936 c-126 -31 -246 -122 -306 -233 -34 -64 -67 -190 -67
-257 1 -117 45 -245 116 -333 46 -56 142 -118 223 -144 101 -32 259 -30 368 5
137 44 225 122 283 249 51 114 62 215 36 338 -40 186 -175 325 -363 374 -68
18 -217 18 -290 1z"/>
<path d="M18030 3934 c-142 -37 -258 -130 -316 -253 -102 -215 -46 -493 125
-627 136 -107 339 -139 521 -83 181 57 292 186 326 379 21 121 -7 279 -66 375
-32 52 -139 146 -195 171 -117 54 -278 69 -395 38z"/>
<path d="M11019 3933 c-2 -4 -3 -226 -1 -493 l2 -485 258 6 c161 4 272 11 297
18 107 34 215 115 270 201 37 59 53 107 65 204 10 69 9 99 -4 165 -34 181
-128 293 -304 359 -64 25 -78 26 -323 30 -141 2 -258 0 -260 -5z"/>
<path d="M19610 3670 l0 -272 248 4 c233 3 250 4 298 26 99 45 154 129 154
236 0 115 -60 209 -158 248 -53 21 -75 23 -299 26 l-243 4 0 -272z"/>
<path d="M8345 3864 c-21 -51 -99 -220 -192 -413 -75 -157 -81 -177 -62 -183
15 -5 572 1 577 6 4 5 -285 607 -298 620 -6 6 -16 -6 -25 -30z"/>
<path d="M7870 3435 c0 -8 2 -15 4 -15 2 0 6 7 10 15 3 8 1 15 -4 15 -6 0 -10
-7 -10 -15z"/>
<path d="M7835 3370 c-3 -5 -1 -10 4 -10 6 0 11 5 11 10 0 6 -2 10 -4 10 -3 0
-8 -4 -11 -10z"/>
<path d="M8065 3340 c-3 -5 -1 -10 4 -10 6 0 11 5 11 10 0 6 -2 10 -4 10 -3 0
-8 -4 -11 -10z"/>
<path d="M7816 3323 c-6 -14 -5 -15 5 -6 7 7 10 15 7 18 -3 3 -9 -2 -12 -12z"/>
<path d="M8675 3320 c3 -5 8 -10 11 -10 2 0 4 5 4 10 0 6 -5 10 -11 10 -5 0
-7 -4 -4 -10z"/>
<path d="M8033 3313 c-7 -2 -13 -9 -13 -15 0 -7 5 -6 14 1 12 10 14 8 9 -11
-4 -18 -3 -20 6 -8 21 29 13 45 -16 33z"/>
<path d="M7885 3271 c-6 -11 9 -23 19 -14 9 9 7 23 -3 23 -6 0 -12 -4 -16 -9z"/>
<path d="M8039 3244 c6 -3 8 -11 6 -17 -3 -7 -1 -18 4 -26 7 -10 13 -11 30 -2
11 7 21 17 21 24 0 8 3 8 9 -1 7 -11 9 -11 14 2 4 10 1 16 -7 16 -26 0 -46
-12 -46 -28 0 -8 -3 -12 -7 -8 -4 4 -8 15 -8 23 0 9 -6 17 -13 19 -7 1 -8 0
-3 -2z"/>
<path d="M7872 3233 c-6 -2 -9 -9 -6 -15 4 -6 10 -5 15 3 6 10 9 10 9 2 0 -7
7 -10 15 -7 8 4 12 10 9 15 -6 10 -21 11 -42 2z"/>
<path d="M8141 3226 c-9 -10 -8 -15 3 -19 10 -4 13 -1 10 8 -4 9 4 15 23 18
28 4 28 4 2 6 -15 0 -32 -5 -38 -13z"/>
<path d="M8223 3233 c9 -2 23 -2 30 0 6 3 -1 5 -18 5 -16 0 -22 -2 -12 -5z"/>
<path d="M7820 3220 c0 -5 5 -10 10 -10 6 0 10 5 10 10 0 6 -4 10 -10 10 -5 0
-10 -4 -10 -10z"/>
<path d="M8450 3182 c0 -4 9 -8 20 -9 11 -1 18 2 15 8 -7 11 -35 12 -35 1z"/>
<path d="M8498 3143 c6 -2 18 -2 25 0 6 3 1 5 -13 5 -14 0 -19 -2 -12 -5z"/>
<path d="M9730 3150 c0 -5 5 -10 11 -10 5 0 7 5 4 10 -3 6 -8 10 -11 10 -2 0
-4 -4 -4 -10z"/>
<path d="M9730 3119 c0 -5 5 -7 10 -4 6 3 10 8 10 11 0 2 -4 4 -10 4 -5 0 -10
-5 -10 -11z"/>
</g>
</svg>
